<?xml version="1.0" encoding="utf-8" standalone="no"?>
<!DOCTYPE svg PUBLIC "-//W3C//DTD SVG 1.1//EN"
  "http://www.w3.org/Graphics/SVG/1.1/DTD/svg11.dtd">
<!-- Created with matplotlib (http://matplotlib.org/) -->
<svg height="360pt" version="1.1" viewBox="0 0 864 360" width="864pt" xmlns="http://www.w3.org/2000/svg" xmlns:xlink="http://www.w3.org/1999/xlink">
 <defs>
  <style type="text/css">
*{stroke-linecap:butt;stroke-linejoin:round;}
  </style>
 </defs>
 <g id="figure_1">
  <g id="patch_1">
   <path d="M 0 360 
L 864 360 
L 864 0 
L 0 0 
z
" style="fill:#ffffff;"/>
  </g>
  <g id="axes_1">
   <g id="patch_2">
    <path d="M 108 306 
L 777.6 306 
L 777.6 43.2 
L 108 43.2 
z
" style="fill:#ffffff;"/>
   </g>
   <g id="matplotlib.axis_1">
    <g id="xtick_1">
     <g id="line2d_1">
      <defs>
       <path d="M 0 0 
L 0 3.5 
" id="mefc9f89289" style="stroke:#000000;stroke-width:0.8;"/>
      </defs>
      <g>
       <use style="stroke:#000000;stroke-width:0.8;" x="108" xlink:href="#mefc9f89289" y="306"/>
      </g>
     </g>
     <g id="text_1">
      <!-- 0.0 -->
      <defs>
       <path d="M 31.78125 66.40625 
Q 24.171875 66.40625 20.328125 58.90625 
Q 16.5 51.421875 16.5 36.375 
Q 16.5 21.390625 20.328125 13.890625 
Q 24.171875 6.390625 31.78125 6.390625 
Q 39.453125 6.390625 43.28125 13.890625 
Q 47.125 21.390625 47.125 36.375 
Q 47.125 51.421875 43.28125 58.90625 
Q 39.453125 66.40625 31.78125 66.40625 
z
M 31.78125 74.21875 
Q 44.046875 74.21875 50.515625 64.515625 
Q 56.984375 54.828125 56.984375 36.375 
Q 56.984375 17.96875 50.515625 8.265625 
Q 44.046875 -1.421875 31.78125 -1.421875 
Q 19.53125 -1.421875 13.0625 8.265625 
Q 6.59375 17.96875 6.59375 36.375 
Q 6.59375 54.828125 13.0625 64.515625 
Q 19.53125 74.21875 31.78125 74.21875 
z
" id="DejaVuSans-30"/>
       <path d="M 10.6875 12.40625 
L 21 12.40625 
L 21 0 
L 10.6875 0 
z
" id="DejaVuSans-2e"/>
      </defs>
      <g transform="translate(100.048438 320.598437)scale(0.1 -0.1)">
       <use xlink:href="#DejaVuSans-30"/>
       <use x="63.623047" xlink:href="#DejaVuSans-2e"/>
       <use x="95.410156" xlink:href="#DejaVuSans-30"/>
      </g>
     </g>
    </g>
    <g id="xtick_2">
     <g id="line2d_2">
      <g>
       <use style="stroke:#000000;stroke-width:0.8;" x="219.6" xlink:href="#mefc9f89289" y="306"/>
      </g>
     </g>
     <g id="text_2">
      <!-- 0.5 -->
      <defs>
       <path d="M 10.796875 72.90625 
L 49.515625 72.90625 
L 49.515625 64.59375 
L 19.828125 64.59375 
L 19.828125 46.734375 
Q 21.96875 47.46875 24.109375 47.828125 
Q 26.265625 48.1875 28.421875 48.1875 
Q 40.625 48.1875 47.75 41.5 
Q 54.890625 34.8125 54.890625 23.390625 
Q 54.890625 11.625 47.5625 5.09375 
Q 40.234375 -1.421875 26.90625 -1.421875 
Q 22.3125 -1.421875 17.546875 -0.640625 
Q 12.796875 0.140625 7.71875 1.703125 
L 7.71875 11.625 
Q 12.109375 9.234375 16.796875 8.0625 
Q 21.484375 6.890625 26.703125 6.890625 
Q 35.15625 6.890625 40.078125 11.328125 
Q 45.015625 15.765625 45.015625 23.390625 
Q 45.015625 31 40.078125 35.4375 
Q 35.15625 39.890625 26.703125 39.890625 
Q 22.75 39.890625 18.8125 39.015625 
Q 14.890625 38.140625 10.796875 36.28125 
z
" id="DejaVuSans-35"/>
      </defs>
      <g transform="translate(211.648438 320.598437)scale(0.1 -0.1)">
       <use xlink:href="#DejaVuSans-30"/>
       <use x="63.623047" xlink:href="#DejaVuSans-2e"/>
       <use x="95.410156" xlink:href="#DejaVuSans-35"/>
      </g>
     </g>
    </g>
    <g id="xtick_3">
     <g id="line2d_3">
      <g>
       <use style="stroke:#000000;stroke-width:0.8;" x="331.2" xlink:href="#mefc9f89289" y="306"/>
      </g>
     </g>
     <g id="text_3">
      <!-- 1.0 -->
      <defs>
       <path d="M 12.40625 8.296875 
L 28.515625 8.296875 
L 28.515625 63.921875 
L 10.984375 60.40625 
L 10.984375 69.390625 
L 28.421875 72.90625 
L 38.28125 72.90625 
L 38.28125 8.296875 
L 54.390625 8.296875 
L 54.390625 0 
L 12.40625 0 
z
" id="DejaVuSans-31"/>
      </defs>
      <g transform="translate(323.248437 320.598437)scale(0.1 -0.1)">
       <use xlink:href="#DejaVuSans-31"/>
       <use x="63.623047" xlink:href="#DejaVuSans-2e"/>
       <use x="95.410156" xlink:href="#DejaVuSans-30"/>
      </g>
     </g>
    </g>
    <g id="xtick_4">
     <g id="line2d_4">
      <g>
       <use style="stroke:#000000;stroke-width:0.8;" x="442.8" xlink:href="#mefc9f89289" y="306"/>
      </g>
     </g>
     <g id="text_4">
      <!-- 1.5 -->
      <g transform="translate(434.848437 320.598437)scale(0.1 -0.1)">
       <use xlink:href="#DejaVuSans-31"/>
       <use x="63.623047" xlink:href="#DejaVuSans-2e"/>
       <use x="95.410156" xlink:href="#DejaVuSans-35"/>
      </g>
     </g>
    </g>
    <g id="xtick_5">
     <g id="line2d_5">
      <g>
       <use style="stroke:#000000;stroke-width:0.8;" x="554.4" xlink:href="#mefc9f89289" y="306"/>
      </g>
     </g>
     <g id="text_5">
      <!-- 2.0 -->
      <defs>
       <path d="M 19.1875 8.296875 
L 53.609375 8.296875 
L 53.609375 0 
L 7.328125 0 
L 7.328125 8.296875 
Q 12.9375 14.109375 22.625 23.890625 
Q 32.328125 33.6875 34.8125 36.53125 
Q 39.546875 41.84375 41.421875 45.53125 
Q 43.3125 49.21875 43.3125 52.78125 
Q 43.3125 58.59375 39.234375 62.25 
Q 35.15625 65.921875 28.609375 65.921875 
Q 23.96875 65.921875 18.8125 64.3125 
Q 13.671875 62.703125 7.8125 59.421875 
L 7.8125 69.390625 
Q 13.765625 71.78125 18.9375 73 
Q 24.125 74.21875 28.421875 74.21875 
Q 39.75 74.21875 46.484375 68.546875 
Q 53.21875 62.890625 53.21875 53.421875 
Q 53.21875 48.921875 51.53125 44.890625 
Q 49.859375 40.875 45.40625 35.40625 
Q 44.1875 33.984375 37.640625 27.21875 
Q 31.109375 20.453125 19.1875 8.296875 
z
" id="DejaVuSans-32"/>
      </defs>
      <g transform="translate(546.448437 320.598437)scale(0.1 -0.1)">
       <use xlink:href="#DejaVuSans-32"/>
       <use x="63.623047" xlink:href="#DejaVuSans-2e"/>
       <use x="95.410156" xlink:href="#DejaVuSans-30"/>
      </g>
     </g>
    </g>
    <g id="xtick_6">
     <g id="line2d_6">
      <g>
       <use style="stroke:#000000;stroke-width:0.8;" x="666" xlink:href="#mefc9f89289" y="306"/>
      </g>
     </g>
     <g id="text_6">
      <!-- 2.5 -->
      <g transform="translate(658.048437 320.598437)scale(0.1 -0.1)">
       <use xlink:href="#DejaVuSans-32"/>
       <use x="63.623047" xlink:href="#DejaVuSans-2e"/>
       <use x="95.410156" xlink:href="#DejaVuSans-35"/>
      </g>
     </g>
    </g>
    <g id="xtick_7">
     <g id="line2d_7">
      <g>
       <use style="stroke:#000000;stroke-width:0.8;" x="777.6" xlink:href="#mefc9f89289" y="306"/>
      </g>
     </g>
     <g id="text_7">
      <!-- 3.0 -->
      <defs>
       <path d="M 40.578125 39.3125 
Q 47.65625 37.796875 51.625 33 
Q 55.609375 28.21875 55.609375 21.1875 
Q 55.609375 10.40625 48.1875 4.484375 
Q 40.765625 -1.421875 27.09375 -1.421875 
Q 22.515625 -1.421875 17.65625 -0.515625 
Q 12.796875 0.390625 7.625 2.203125 
L 7.625 11.71875 
Q 11.71875 9.328125 16.59375 8.109375 
Q 21.484375 6.890625 26.8125 6.890625 
Q 36.078125 6.890625 40.9375 10.546875 
Q 45.796875 14.203125 45.796875 21.1875 
Q 45.796875 27.640625 41.28125 31.265625 
Q 36.765625 34.90625 28.71875 34.90625 
L 20.21875 34.90625 
L 20.21875 43.015625 
L 29.109375 43.015625 
Q 36.375 43.015625 40.234375 45.921875 
Q 44.09375 48.828125 44.09375 54.296875 
Q 44.09375 59.90625 40.109375 62.90625 
Q 36.140625 65.921875 28.71875 65.921875 
Q 24.65625 65.921875 20.015625 65.03125 
Q 15.375 64.15625 9.8125 62.3125 
L 9.8125 71.09375 
Q 15.4375 72.65625 20.34375 73.4375 
Q 25.25 74.21875 29.59375 74.21875 
Q 40.828125 74.21875 47.359375 69.109375 
Q 53.90625 64.015625 53.90625 55.328125 
Q 53.90625 49.265625 50.4375 45.09375 
Q 46.96875 40.921875 40.578125 39.3125 
z
" id="DejaVuSans-33"/>
      </defs>
      <g transform="translate(769.648437 320.598437)scale(0.1 -0.1)">
       <use xlink:href="#DejaVuSans-33"/>
       <use x="63.623047" xlink:href="#DejaVuSans-2e"/>
       <use x="95.410156" xlink:href="#DejaVuSans-30"/>
      </g>
     </g>
    </g>
    <g id="text_8">
     <!-- Time (seconds) -->
     <defs>
      <path d="M -0.296875 72.90625 
L 61.375 72.90625 
L 61.375 64.59375 
L 35.5 64.59375 
L 35.5 0 
L 25.59375 0 
L 25.59375 64.59375 
L -0.296875 64.59375 
z
" id="DejaVuSans-54"/>
      <path d="M 9.421875 54.6875 
L 18.40625 54.6875 
L 18.40625 0 
L 9.421875 0 
z
M 9.421875 75.984375 
L 18.40625 75.984375 
L 18.40625 64.59375 
L 9.421875 64.59375 
z
" id="DejaVuSans-69"/>
      <path d="M 52 44.1875 
Q 55.375 50.25 60.0625 53.125 
Q 64.75 56 71.09375 56 
Q 79.640625 56 84.28125 50.015625 
Q 88.921875 44.046875 88.921875 33.015625 
L 88.921875 0 
L 79.890625 0 
L 79.890625 32.71875 
Q 79.890625 40.578125 77.09375 44.375 
Q 74.3125 48.1875 68.609375 48.1875 
Q 61.625 48.1875 57.5625 43.546875 
Q 53.515625 38.921875 53.515625 30.90625 
L 53.515625 0 
L 44.484375 0 
L 44.484375 32.71875 
Q 44.484375 40.625 41.703125 44.40625 
Q 38.921875 48.1875 33.109375 48.1875 
Q 26.21875 48.1875 22.15625 43.53125 
Q 18.109375 38.875 18.109375 30.90625 
L 18.109375 0 
L 9.078125 0 
L 9.078125 54.6875 
L 18.109375 54.6875 
L 18.109375 46.1875 
Q 21.1875 51.21875 25.484375 53.609375 
Q 29.78125 56 35.6875 56 
Q 41.65625 56 45.828125 52.96875 
Q 50 49.953125 52 44.1875 
z
" id="DejaVuSans-6d"/>
      <path d="M 56.203125 29.59375 
L 56.203125 25.203125 
L 14.890625 25.203125 
Q 15.484375 15.921875 20.484375 11.0625 
Q 25.484375 6.203125 34.421875 6.203125 
Q 39.59375 6.203125 44.453125 7.46875 
Q 49.3125 8.734375 54.109375 11.28125 
L 54.109375 2.78125 
Q 49.265625 0.734375 44.1875 -0.34375 
Q 39.109375 -1.421875 33.890625 -1.421875 
Q 20.796875 -1.421875 13.15625 6.1875 
Q 5.515625 13.8125 5.515625 26.8125 
Q 5.515625 40.234375 12.765625 48.109375 
Q 20.015625 56 32.328125 56 
Q 43.359375 56 49.78125 48.890625 
Q 56.203125 41.796875 56.203125 29.59375 
z
M 47.21875 32.234375 
Q 47.125 39.59375 43.09375 43.984375 
Q 39.0625 48.390625 32.421875 48.390625 
Q 24.90625 48.390625 20.390625 44.140625 
Q 15.875 39.890625 15.1875 32.171875 
z
" id="DejaVuSans-65"/>
      <path id="DejaVuSans-20"/>
      <path d="M 31 75.875 
Q 24.46875 64.65625 21.28125 53.65625 
Q 18.109375 42.671875 18.109375 31.390625 
Q 18.109375 20.125 21.3125 9.0625 
Q 24.515625 -2 31 -13.1875 
L 23.1875 -13.1875 
Q 15.875 -1.703125 12.234375 9.375 
Q 8.59375 20.453125 8.59375 31.390625 
Q 8.59375 42.28125 12.203125 53.3125 
Q 15.828125 64.359375 23.1875 75.875 
z
" id="DejaVuSans-28"/>
      <path d="M 44.28125 53.078125 
L 44.28125 44.578125 
Q 40.484375 46.53125 36.375 47.5 
Q 32.28125 48.484375 27.875 48.484375 
Q 21.1875 48.484375 17.84375 46.4375 
Q 14.5 44.390625 14.5 40.28125 
Q 14.5 37.15625 16.890625 35.375 
Q 19.28125 33.59375 26.515625 31.984375 
L 29.59375 31.296875 
Q 39.15625 29.25 43.1875 25.515625 
Q 47.21875 21.78125 47.21875 15.09375 
Q 47.21875 7.46875 41.1875 3.015625 
Q 35.15625 -1.421875 24.609375 -1.421875 
Q 20.21875 -1.421875 15.453125 -0.5625 
Q 10.6875 0.296875 5.421875 2 
L 5.421875 11.28125 
Q 10.40625 8.6875 15.234375 7.390625 
Q 20.0625 6.109375 24.8125 6.109375 
Q 31.15625 6.109375 34.5625 8.28125 
Q 37.984375 10.453125 37.984375 14.40625 
Q 37.984375 18.0625 35.515625 20.015625 
Q 33.0625 21.96875 24.703125 23.78125 
L 21.578125 24.515625 
Q 13.234375 26.265625 9.515625 29.90625 
Q 5.8125 33.546875 5.8125 39.890625 
Q 5.8125 47.609375 11.28125 51.796875 
Q 16.75 56 26.8125 56 
Q 31.78125 56 36.171875 55.265625 
Q 40.578125 54.546875 44.28125 53.078125 
z
" id="DejaVuSans-73"/>
      <path d="M 48.78125 52.59375 
L 48.78125 44.1875 
Q 44.96875 46.296875 41.140625 47.34375 
Q 37.3125 48.390625 33.40625 48.390625 
Q 24.65625 48.390625 19.8125 42.84375 
Q 14.984375 37.3125 14.984375 27.296875 
Q 14.984375 17.28125 19.8125 11.734375 
Q 24.65625 6.203125 33.40625 6.203125 
Q 37.3125 6.203125 41.140625 7.25 
Q 44.96875 8.296875 48.78125 10.40625 
L 48.78125 2.09375 
Q 45.015625 0.34375 40.984375 -0.53125 
Q 36.96875 -1.421875 32.421875 -1.421875 
Q 20.0625 -1.421875 12.78125 6.34375 
Q 5.515625 14.109375 5.515625 27.296875 
Q 5.515625 40.671875 12.859375 48.328125 
Q 20.21875 56 33.015625 56 
Q 37.15625 56 41.109375 55.140625 
Q 45.0625 54.296875 48.78125 52.59375 
z
" id="DejaVuSans-63"/>
      <path d="M 30.609375 48.390625 
Q 23.390625 48.390625 19.1875 42.75 
Q 14.984375 37.109375 14.984375 27.296875 
Q 14.984375 17.484375 19.15625 11.84375 
Q 23.34375 6.203125 30.609375 6.203125 
Q 37.796875 6.203125 41.984375 11.859375 
Q 46.1875 17.53125 46.1875 27.296875 
Q 46.1875 37.015625 41.984375 42.703125 
Q 37.796875 48.390625 30.609375 48.390625 
z
M 30.609375 56 
Q 42.328125 56 49.015625 48.375 
Q 55.71875 40.765625 55.71875 27.296875 
Q 55.71875 13.875 49.015625 6.21875 
Q 42.328125 -1.421875 30.609375 -1.421875 
Q 18.84375 -1.421875 12.171875 6.21875 
Q 5.515625 13.875 5.515625 27.296875 
Q 5.515625 40.765625 12.171875 48.375 
Q 18.84375 56 30.609375 56 
z
" id="DejaVuSans-6f"/>
      <path d="M 54.890625 33.015625 
L 54.890625 0 
L 45.90625 0 
L 45.90625 32.71875 
Q 45.90625 40.484375 42.875 44.328125 
Q 39.84375 48.1875 33.796875 48.1875 
Q 26.515625 48.1875 22.3125 43.546875 
Q 18.109375 38.921875 18.109375 30.90625 
L 18.109375 0 
L 9.078125 0 
L 9.078125 54.6875 
L 18.109375 54.6875 
L 18.109375 46.1875 
Q 21.34375 51.125 25.703125 53.5625 
Q 30.078125 56 35.796875 56 
Q 45.21875 56 50.046875 50.171875 
Q 54.890625 44.34375 54.890625 33.015625 
z
" id="DejaVuSans-6e"/>
      <path d="M 45.40625 46.390625 
L 45.40625 75.984375 
L 54.390625 75.984375 
L 54.390625 0 
L 45.40625 0 
L 45.40625 8.203125 
Q 42.578125 3.328125 38.25 0.953125 
Q 33.9375 -1.421875 27.875 -1.421875 
Q 17.96875 -1.421875 11.734375 6.484375 
Q 5.515625 14.40625 5.515625 27.296875 
Q 5.515625 40.1875 11.734375 48.09375 
Q 17.96875 56 27.875 56 
Q 33.9375 56 38.25 53.625 
Q 42.578125 51.265625 45.40625 46.390625 
z
M 14.796875 27.296875 
Q 14.796875 17.390625 18.875 11.75 
Q 22.953125 6.109375 30.078125 6.109375 
Q 37.203125 6.109375 41.296875 11.75 
Q 45.40625 17.390625 45.40625 27.296875 
Q 45.40625 37.203125 41.296875 42.84375 
Q 37.203125 48.484375 30.078125 48.484375 
Q 22.953125 48.484375 18.875 42.84375 
Q 14.796875 37.203125 14.796875 27.296875 
z
" id="DejaVuSans-64"/>
      <path d="M 8.015625 75.875 
L 15.828125 75.875 
Q 23.140625 64.359375 26.78125 53.3125 
Q 30.421875 42.28125 30.421875 31.390625 
Q 30.421875 20.453125 26.78125 9.375 
Q 23.140625 -1.703125 15.828125 -13.1875 
L 8.015625 -13.1875 
Q 14.5 -2 17.703125 9.0625 
Q 20.90625 20.125 20.90625 31.390625 
Q 20.90625 42.671875 17.703125 53.65625 
Q 14.5 64.65625 8.015625 75.875 
z
" id="DejaVuSans-29"/>
     </defs>
     <g transform="translate(404.484375 334.276563)scale(0.1 -0.1)">
      <use xlink:href="#DejaVuSans-54"/>
      <use x="61.037109" xlink:href="#DejaVuSans-69"/>
      <use x="88.820312" xlink:href="#DejaVuSans-6d"/>
      <use x="186.232422" xlink:href="#DejaVuSans-65"/>
      <use x="247.755859" xlink:href="#DejaVuSans-20"/>
      <use x="279.542969" xlink:href="#DejaVuSans-28"/>
      <use x="318.556641" xlink:href="#DejaVuSans-73"/>
      <use x="370.65625" xlink:href="#DejaVuSans-65"/>
      <use x="432.179688" xlink:href="#DejaVuSans-63"/>
      <use x="487.160156" xlink:href="#DejaVuSans-6f"/>
      <use x="548.341797" xlink:href="#DejaVuSans-6e"/>
      <use x="611.720703" xlink:href="#DejaVuSans-64"/>
      <use x="675.197266" xlink:href="#DejaVuSans-73"/>
      <use x="727.296875" xlink:href="#DejaVuSans-29"/>
     </g>
    </g>
   </g>
   <g id="matplotlib.axis_2">
    <g id="ytick_1">
     <g id="line2d_8">
      <defs>
       <path d="M 0 0 
L -3.5 0 
" id="m26970937d0" style="stroke:#000000;stroke-width:0.8;"/>
      </defs>
      <g>
       <use style="stroke:#000000;stroke-width:0.8;" x="108" xlink:href="#m26970937d0" y="294.054545"/>
      </g>
     </g>
     <g id="text_9">
      <!-- 0 -->
      <g transform="translate(94.6375 297.853764)scale(0.1 -0.1)">
       <use xlink:href="#DejaVuSans-30"/>
      </g>
     </g>
    </g>
    <g id="ytick_2">
     <g id="line2d_9">
      <g>
       <use style="stroke:#000000;stroke-width:0.8;" x="108" xlink:href="#m26970937d0" y="241.34451"/>
      </g>
     </g>
     <g id="text_10">
      <!-- 10 -->
      <g transform="translate(88.275 245.143728)scale(0.1 -0.1)">
       <use xlink:href="#DejaVuSans-31"/>
       <use x="63.623047" xlink:href="#DejaVuSans-30"/>
      </g>
     </g>
    </g>
    <g id="ytick_3">
     <g id="line2d_10">
      <g>
       <use style="stroke:#000000;stroke-width:0.8;" x="108" xlink:href="#m26970937d0" y="188.634474"/>
      </g>
     </g>
     <g id="text_11">
      <!-- 20 -->
      <g transform="translate(88.275 192.433693)scale(0.1 -0.1)">
       <use xlink:href="#DejaVuSans-32"/>
       <use x="63.623047" xlink:href="#DejaVuSans-30"/>
      </g>
     </g>
    </g>
    <g id="ytick_4">
     <g id="line2d_11">
      <g>
       <use style="stroke:#000000;stroke-width:0.8;" x="108" xlink:href="#m26970937d0" y="135.924438"/>
      </g>
     </g>
     <g id="text_12">
      <!-- 30 -->
      <g transform="translate(88.275 139.723657)scale(0.1 -0.1)">
       <use xlink:href="#DejaVuSans-33"/>
       <use x="63.623047" xlink:href="#DejaVuSans-30"/>
      </g>
     </g>
    </g>
    <g id="ytick_5">
     <g id="line2d_12">
      <g>
       <use style="stroke:#000000;stroke-width:0.8;" x="108" xlink:href="#m26970937d0" y="83.214402"/>
      </g>
     </g>
     <g id="text_13">
      <!-- 40 -->
      <defs>
       <path d="M 37.796875 64.3125 
L 12.890625 25.390625 
L 37.796875 25.390625 
z
M 35.203125 72.90625 
L 47.609375 72.90625 
L 47.609375 25.390625 
L 58.015625 25.390625 
L 58.015625 17.1875 
L 47.609375 17.1875 
L 47.609375 0 
L 37.796875 0 
L 37.796875 17.1875 
L 4.890625 17.1875 
L 4.890625 26.703125 
z
" id="DejaVuSans-34"/>
      </defs>
      <g transform="translate(88.275 87.013621)scale(0.1 -0.1)">
       <use xlink:href="#DejaVuSans-34"/>
       <use x="63.623047" xlink:href="#DejaVuSans-30"/>
      </g>
     </g>
    </g>
    <g id="text_14">
     <!-- Activity (Hz) -->
     <defs>
      <path d="M 34.1875 63.1875 
L 20.796875 26.90625 
L 47.609375 26.90625 
z
M 28.609375 72.90625 
L 39.796875 72.90625 
L 67.578125 0 
L 57.328125 0 
L 50.6875 18.703125 
L 17.828125 18.703125 
L 11.1875 0 
L 0.78125 0 
z
" id="DejaVuSans-41"/>
      <path d="M 18.3125 70.21875 
L 18.3125 54.6875 
L 36.8125 54.6875 
L 36.8125 47.703125 
L 18.3125 47.703125 
L 18.3125 18.015625 
Q 18.3125 11.328125 20.140625 9.421875 
Q 21.96875 7.515625 27.59375 7.515625 
L 36.8125 7.515625 
L 36.8125 0 
L 27.59375 0 
Q 17.1875 0 13.234375 3.875 
Q 9.28125 7.765625 9.28125 18.015625 
L 9.28125 47.703125 
L 2.6875 47.703125 
L 2.6875 54.6875 
L 9.28125 54.6875 
L 9.28125 70.21875 
z
" id="DejaVuSans-74"/>
      <path d="M 2.984375 54.6875 
L 12.5 54.6875 
L 29.59375 8.796875 
L 46.6875 54.6875 
L 56.203125 54.6875 
L 35.6875 0 
L 23.484375 0 
z
" id="DejaVuSans-76"/>
      <path d="M 32.171875 -5.078125 
Q 28.375 -14.84375 24.75 -17.8125 
Q 21.140625 -20.796875 15.09375 -20.796875 
L 7.90625 -20.796875 
L 7.90625 -13.28125 
L 13.1875 -13.28125 
Q 16.890625 -13.28125 18.9375 -11.515625 
Q 21 -9.765625 23.484375 -3.21875 
L 25.09375 0.875 
L 2.984375 54.6875 
L 12.5 54.6875 
L 29.59375 11.921875 
L 46.6875 54.6875 
L 56.203125 54.6875 
z
" id="DejaVuSans-79"/>
      <path d="M 9.8125 72.90625 
L 19.671875 72.90625 
L 19.671875 43.015625 
L 55.515625 43.015625 
L 55.515625 72.90625 
L 65.375 72.90625 
L 65.375 0 
L 55.515625 0 
L 55.515625 34.71875 
L 19.671875 34.71875 
L 19.671875 0 
L 9.8125 0 
z
" id="DejaVuSans-48"/>
      <path d="M 5.515625 54.6875 
L 48.1875 54.6875 
L 48.1875 46.484375 
L 14.40625 7.171875 
L 48.1875 7.171875 
L 48.1875 0 
L 4.296875 0 
L 4.296875 8.203125 
L 38.09375 47.515625 
L 5.515625 47.515625 
z
" id="DejaVuSans-7a"/>
     </defs>
     <g transform="translate(82.195312 205.260938)rotate(-90)scale(0.1 -0.1)">
      <use xlink:href="#DejaVuSans-41"/>
      <use x="68.392578" xlink:href="#DejaVuSans-63"/>
      <use x="123.373047" xlink:href="#DejaVuSans-74"/>
      <use x="162.582031" xlink:href="#DejaVuSans-69"/>
      <use x="190.365234" xlink:href="#DejaVuSans-76"/>
      <use x="249.544922" xlink:href="#DejaVuSans-69"/>
      <use x="277.328125" xlink:href="#DejaVuSans-74"/>
      <use x="316.537109" xlink:href="#DejaVuSans-79"/>
      <use x="375.716797" xlink:href="#DejaVuSans-20"/>
      <use x="407.503906" xlink:href="#DejaVuSans-28"/>
      <use x="446.517578" xlink:href="#DejaVuSans-48"/>
      <use x="521.712891" xlink:href="#DejaVuSans-7a"/>
      <use x="574.203125" xlink:href="#DejaVuSans-29"/>
     </g>
    </g>
   </g>
   <g id="line2d_13">
    <path clip-path="url(#p9c34007a39)" d="M 108 292.484614 
L 108.446549 283.873259 
L 109.116372 262.342584 
L 112.01894 155.868356 
L 112.688763 141.262448 
L 113.135312 134.692547 
L 113.581861 130.779396 
L 113.805135 129.801508 
L 114.028409 129.488426 
L 114.251684 129.739977 
L 114.474958 130.63596 
L 114.921507 134.056601 
L 115.368056 139.606751 
L 116.037879 151.171136 
L 116.930977 171.24105 
L 118.717172 218.753918 
L 119.386996 234.906596 
L 120.056819 246.605289 
L 120.726642 255.197441 
L 121.396465 261.440611 
L 122.066289 266.02092 
L 122.959386 270.220377 
L 123.852484 272.966822 
L 124.745582 274.775551 
L 124.968856 275.014091 
L 125.192131 274.839872 
L 125.415405 274.310798 
L 125.861954 272.373177 
L 126.308503 269.39699 
L 126.978326 263.355321 
L 127.871424 253.362121 
L 130.773991 218.918021 
L 131.667089 211.453723 
L 132.336912 207.617171 
L 132.783461 205.953426 
L 133.23001 205.024178 
L 133.453284 204.841932 
L 133.676559 204.849859 
L 133.899833 205.021007 
L 134.123108 205.351533 
L 134.569657 206.574142 
L 135.016205 208.425336 
L 135.686029 212.196818 
L 136.579126 218.687127 
L 138.365322 233.966163 
L 139.704968 244.549735 
L 140.598066 250.04869 
L 141.267889 253.060836 
L 141.937713 254.964624 
L 142.384261 255.595235 
L 142.83081 255.760062 
L 143.277359 255.372201 
L 143.723908 254.525335 
L 144.393731 252.471847 
L 145.286829 248.435409 
L 146.403201 242.07166 
L 148.412671 230.001173 
L 149.305769 225.616192 
L 149.975592 223.063748 
L 150.645415 221.262928 
L 151.091964 220.547956 
L 151.538513 220.178329 
L 151.985062 220.164624 
L 152.431611 220.537097 
L 152.878159 221.242184 
L 153.324708 222.210022 
L 153.994532 224.195683 
L 154.887629 227.514493 
L 158.46002 241.85105 
L 159.129843 243.621878 
L 159.799667 244.838936 
L 160.246215 245.332819 
L 160.692764 245.536124 
L 160.916039 245.597682 
L 161.585862 245.293631 
L 162.255685 244.46328 
L 163.148783 242.670814 
L 164.041881 240.260483 
L 167.390997 230.626692 
L 168.507369 228.651705 
L 169.177192 227.966323 
L 169.847016 227.719547 
L 170.293565 227.78189 
L 170.740113 227.983765 
L 171.186662 228.383728 
L 171.856485 229.247509 
L 172.749583 230.757244 
L 175.875425 237.352348 
L 176.768523 238.81061 
L 177.661621 239.818175 
L 178.108169 240.193797 
L 179.001267 240.473724 
L 179.894365 240.23311 
L 180.787462 239.588314 
L 182.350383 237.581165 
L 185.6995 232.818971 
L 186.369323 232.20455 
L 187.039146 231.734668 
L 187.932244 231.486957 
L 188.602067 231.525557 
L 189.495165 231.897531 
L 190.834812 232.946914 
L 192.397733 234.580317 
L 194.407202 236.611664 
L 195.523575 237.389106 
L 196.639947 237.781793 
L 197.533044 237.865373 
L 199.095965 237.342266 
L 199.989063 236.772141 
L 202.221807 235.100669 
L 203.114905 234.436642 
L 204.008003 233.959808 
L 204.454552 233.712533 
L 206.017472 233.331576 
L 207.803668 233.584982 
L 209.366589 234.252617 
L 211.376059 235.372051 
L 213.832077 236.353747 
L 214.725175 236.535903 
L 216.957919 236.351441 
L 219.190664 235.660006 
L 219.413938 235.537712 
L 220.083761 215.206056 
L 220.976859 195.649858 
L 221.869957 181.415402 
L 222.763054 170.940958 
L 223.432878 165.057364 
L 224.102701 160.643948 
L 224.772524 157.509257 
L 225.442347 155.487375 
L 226.112171 154.386923 
L 226.55872 154.079214 
L 227.005268 154.000413 
L 227.675092 154.201249 
L 229.907836 155.442529 
L 230.354385 155.442308 
L 230.800934 155.332009 
L 231.470757 154.775053 
L 232.363855 153.417712 
L 233.033678 151.997073 
L 234.15005 148.830074 
L 235.266422 145.024985 
L 237.722441 135.571443 
L 239.955185 127.02957 
L 242.857753 117.489045 
L 245.090497 111.536355 
L 246.653418 108.101184 
L 247.993064 105.513716 
L 250.002534 102.237677 
L 252.681827 98.7028 
L 254.468023 96.700165 
L 267.417939 82.957431 
L 275.679093 73.76477 
L 277.242014 72.187597 
L 278.135112 71.253115 
L 279.251484 70.199098 
L 280.367856 69.127362 
L 286.172991 64.317338 
L 290.638479 61.379361 
L 292.2014 60.522647 
L 292.871224 60.138078 
L 295.327242 58.972835 
L 300.23928 57.088751 
L 302.025475 56.506252 
L 302.695298 56.353386 
L 303.588396 56.120835 
L 308.723708 55.303951 
L 309.84008 55.268733 
L 310.733178 55.195383 
L 312.296099 55.188523 
L 313.412471 55.145455 
L 314.975392 55.184995 
L 337.302834 55.327271 
L 337.972658 55.302307 
L 339.982127 55.293611 
L 340.875225 55.320608 
L 342.438146 55.304526 
L 343.554518 55.325688 
L 344.67089 55.325168 
L 347.573458 55.289364 
L 348.243281 55.323164 
L 348.68983 55.328731 
L 351.592397 55.289869 
L 352.262221 55.319592 
L 352.932044 55.328095 
L 355.388063 55.296047 
L 358.960453 55.305789 
L 360.746649 55.285762 
L 361.639747 55.315305 
L 364.095765 55.30979 
L 424.826409 55.312154 
L 425.496232 55.302538 
L 427.728976 55.293122 
L 428.622074 55.333143 
L 429.515172 55.327713 
L 432.864288 55.332362 
L 433.534111 55.310861 
L 434.650483 55.290465 
L 435.543581 55.332147 
L 436.213404 55.320704 
L 447.377126 55.281839 
L 448.046949 55.320922 
L 450.726242 55.291689 
L 452.735712 55.322356 
L 453.405535 55.328464 
L 454.298633 55.305835 
L 457.871024 55.308661 
L 460.103768 55.294449 
L 461.666689 55.322236 
L 463.006335 55.299414 
L 463.676159 55.320771 
L 514.136179 55.338602 
L 514.582728 55.302336 
L 515.475825 55.343824 
L 516.145649 55.320987 
L 538.026542 55.306665 
L 538.91964 55.324721 
L 547.627342 55.309897 
L 549.413538 55.325858 
L 557.897966 55.298371 
L 559.014338 55.32532 
L 559.460887 55.311916 
L 560.577259 55.327519 
L 562.14018 55.305658 
L 563.926375 55.297637 
L 569.954785 55.289717 
L 570.624608 55.298653 
L 571.74098 55.328442 
L 572.410804 55.29112 
L 574.196999 55.282458 
L 577.76939 55.333705 
L 578.662487 55.296847 
L 582.458153 55.307846 
L 584.467623 55.311513 
L 589.37966 55.325302 
L 590.496032 55.302297 
L 593.621874 55.323672 
L 594.514972 55.326635 
L 606.571791 55.303855 
L 608.134712 55.299128 
L 609.027809 55.316482 
L 614.832944 55.299199 
L 616.61914 55.28734 
L 617.288963 55.317326 
L 618.182061 55.314859 
L 619.298433 55.315602 
L 619.968256 55.327815 
L 625.103568 55.316518 
L 625.996666 55.335667 
L 626.666489 55.327387 
L 638.053484 55.312654 
L 639.83968 55.30181 
L 641.179326 55.296791 
L 645.868089 55.316887 
L 646.761187 55.28918 
L 647.43101 55.295323 
L 653.45942 55.309913 
L 654.129243 55.315697 
L 655.692164 55.285136 
L 656.361987 55.291157 
L 657.924908 55.321944 
L 659.487829 55.283202 
L 659.934378 55.332505 
L 660.604201 55.335653 
L 665.962788 55.299543 
L 666.632611 75.36064 
L 667.525709 94.652443 
L 668.418806 108.554907 
L 669.311904 118.83534 
L 670.205002 126.244716 
L 670.874825 130.170876 
L 671.544648 132.945003 
L 672.214471 134.7146 
L 672.66102 135.396781 
L 673.107569 135.811046 
L 673.554118 135.911324 
L 674.000667 135.809686 
L 674.447216 135.573229 
L 675.563588 134.315487 
L 676.903234 132.305289 
L 678.68943 129.678925 
L 679.359253 129.002768 
L 680.029076 128.494902 
L 680.6989 128.357009 
L 681.368723 128.560429 
L 681.815272 128.911723 
L 682.261821 129.420151 
L 683.154918 130.935243 
L 684.048016 133.084645 
L 685.610937 138.060541 
L 689.406602 151.791713 
L 690.969523 156.211294 
L 691.862621 158.17674 
L 692.755719 159.768668 
L 693.648816 161.051271 
L 695.211737 162.657708 
L 697.444481 164.654354 
L 699.007402 166.667612 
L 699.677226 167.80216 
L 700.793598 170.065717 
L 702.133244 173.452521 
L 703.91944 178.925887 
L 707.715105 191.52988 
L 709.724575 197.131333 
L 710.840947 199.71715 
L 712.403868 202.658771 
L 713.966789 204.973989 
L 718.655552 211.16419 
L 726.023608 223.830498 
L 727.586529 225.787561 
L 728.479627 226.669487 
L 729.819273 227.640883 
L 730.712371 228.081025 
L 731.605468 228.388852 
L 734.284762 228.978234 
L 735.624408 229.250566 
L 739.420073 230.742003 
L 742.76919 232.662618 
L 746.341581 234.023129 
L 747.904502 234.241307 
L 749.020874 234.242552 
L 751.030343 234.130722 
L 751.700167 234.041543 
L 752.593264 234.002698 
L 753.039813 233.928095 
L 754.156185 233.906538 
L 755.272558 233.946034 
L 757.505302 234.161965 
L 759.514772 234.516686 
L 760.407869 234.711588 
L 761.747516 234.946682 
L 766.213004 235.256794 
L 767.552651 235.227915 
L 768.445749 235.13927 
L 774.474158 234.844 
L 777.6 235.082369 
L 777.6 235.082369 
" style="fill:none;stroke:#ff0000;stroke-linecap:square;stroke-width:1.5;"/>
   </g>
   <g id="line2d_14">
    <path clip-path="url(#p9c34007a39)" d="M 108 292.460671 
L 108.446549 283.868311 
L 109.116372 262.333113 
L 112.01894 155.859595 
L 112.688763 141.260384 
L 113.135312 134.753604 
L 113.581861 130.863195 
L 113.805135 129.917413 
L 114.028409 129.599214 
L 114.251684 129.949441 
L 114.474958 130.869803 
L 114.921507 134.483399 
L 115.368056 140.197346 
L 116.037879 152.193518 
L 116.930977 173.049948 
L 119.61027 241.679367 
L 120.280093 251.60401 
L 120.949917 258.828406 
L 121.61974 264.070646 
L 122.289563 267.927535 
L 122.959386 270.722301 
L 123.62921 272.774711 
L 124.522307 274.639535 
L 124.968856 275.347455 
L 125.192131 275.438034 
L 125.415405 275.14302 
L 125.861954 273.494508 
L 126.308503 270.708058 
L 126.978326 264.882974 
L 128.094698 252.197719 
L 130.773991 220.211907 
L 131.667089 212.650106 
L 132.336912 208.741427 
L 132.783461 207.050712 
L 133.23001 206.098411 
L 133.453284 205.921326 
L 133.676559 205.919463 
L 133.899833 206.063949 
L 134.346382 206.964227 
L 134.792931 208.479835 
L 135.462754 211.922283 
L 136.355852 218.135418 
L 137.695498 229.479742 
L 139.481694 244.575781 
L 140.374792 250.544078 
L 141.044615 253.964856 
L 141.714438 256.293667 
L 142.160987 257.144519 
L 142.607536 257.522894 
L 142.83081 257.520035 
L 143.277359 257.155726 
L 143.723908 256.255545 
L 144.170457 254.929311 
L 144.84028 252.255322 
L 145.733378 247.570289 
L 147.296299 237.905265 
L 148.85922 228.907814 
L 149.752317 225.013635 
L 150.422141 222.91125 
L 150.86869 221.993169 
L 151.315238 221.387627 
L 151.761787 221.222347 
L 152.208336 221.388512 
L 152.654885 221.929559 
L 153.101434 222.754466 
L 153.771257 224.543801 
L 154.664355 227.756072 
L 156.004001 233.496899 
L 158.013471 241.741561 
L 158.906569 244.430319 
L 159.576392 245.817656 
L 160.246215 246.663824 
L 160.692764 246.906501 
L 161.139313 246.902939 
L 161.585862 246.612052 
L 162.032411 246.080082 
L 162.702234 244.932084 
L 163.595332 242.799727 
L 165.158253 238.07314 
L 166.721174 233.352344 
L 168.06082 230.369471 
L 168.730644 229.400542 
L 169.400467 228.856031 
L 170.07029 228.717796 
L 170.740113 229.020277 
L 171.409937 229.639166 
L 172.07976 230.596132 
L 173.419406 233.197379 
L 176.0987 238.877658 
L 177.215072 240.510986 
L 177.884895 241.193204 
L 178.777993 241.607238 
L 179.447816 241.542566 
L 180.117639 241.24556 
L 180.787462 240.689232 
L 182.127109 239.01886 
L 185.029677 234.624856 
L 186.369323 233.171174 
L 187.039146 232.751283 
L 187.70897 232.495467 
L 188.155519 232.469475 
L 189.048616 232.685587 
L 189.718439 233.025541 
L 190.611537 233.707091 
L 195.077026 238.178176 
L 195.746849 238.60497 
L 196.416672 238.836265 
L 197.756319 238.874612 
L 198.872691 238.498445 
L 199.31924 238.300688 
L 203.561454 235.203026 
L 205.124375 234.498513 
L 206.464021 234.354832 
L 208.250217 234.753651 
L 209.589863 235.38648 
L 210.706235 236.039573 
L 211.152784 236.240828 
L 212.045882 236.739618 
L 213.162254 237.199858 
L 214.278626 237.509745 
L 216.288096 237.530395 
L 217.404468 237.290189 
L 218.52084 236.927775 
L 219.413938 236.577846 
L 220.083761 216.418992 
L 220.976859 196.957194 
L 221.869957 182.900069 
L 222.763054 172.527974 
L 223.432878 166.710878 
L 224.102701 162.467651 
L 224.772524 159.540152 
L 225.219073 158.247458 
L 225.665622 157.4417 
L 226.112171 157.022386 
L 226.55872 156.992092 
L 227.228543 157.453739 
L 228.344915 159.079646 
L 229.461287 160.990296 
L 230.13111 161.927377 
L 230.800934 162.611323 
L 231.470757 162.942556 
L 232.14058 162.892805 
L 232.810403 162.448357 
L 233.480227 161.677905 
L 234.373324 160.196252 
L 235.936245 156.831765 
L 239.062087 149.570189 
L 240.401734 147.088905 
L 242.187929 144.738805 
L 243.081027 143.965388 
L 243.75085 143.545564 
L 245.537046 143.177151 
L 246.206869 143.271178 
L 248.216339 144.237689 
L 249.555985 145.287679 
L 252.681827 148.83492 
L 254.244748 150.997631 
L 256.030944 153.691579 
L 257.817139 156.477916 
L 262.059353 163.422613 
L 263.845549 166.382382 
L 271.660153 178.860791 
L 279.251484 189.236609 
L 280.59113 190.790959 
L 281.707503 192.078912 
L 284.833344 195.270591 
L 287.512638 197.665951 
L 288.405735 198.396863 
L 291.308303 200.495932 
L 294.21087 202.252791 
L 295.103968 202.775741 
L 298.22981 204.243083 
L 299.122908 204.472983 
L 300.23928 204.660531 
L 302.025475 204.77879 
L 303.141847 204.836789 
L 349.359653 204.935055 
L 350.029476 204.895845 
L 351.145849 204.914543 
L 352.038946 204.911241 
L 352.932044 204.899845 
L 357.397533 204.891776 
L 358.067356 204.927818 
L 367.221607 204.90529 
L 369.677626 204.898169 
L 370.347449 204.921887 
L 371.240547 204.930396 
L 371.91037 204.894122 
L 372.580193 204.917294 
L 381.064622 204.914232 
L 382.180994 204.920114 
L 383.074091 204.906725 
L 383.743915 204.917056 
L 384.860287 204.902788 
L 385.753384 204.936006 
L 386.646482 204.918009 
L 387.53958 204.897297 
L 387.986129 204.909473 
L 391.55852 204.900134 
L 392.228343 204.913928 
L 393.12144 204.908051 
L 393.791264 204.936499 
L 394.237813 204.918772 
L 395.354185 204.934849 
L 397.363655 204.898751 
L 397.810203 204.8997 
L 402.945515 204.924638 
L 404.508436 204.900375 
L 405.624808 204.905365 
L 417.011804 204.89495 
L 417.458353 204.900828 
L 422.593665 204.933603 
L 423.040213 204.902568 
L 423.933311 204.927986 
L 432.417739 204.913575 
L 433.534111 204.903986 
L 434.650483 204.93972 
L 438.892698 204.911514 
L 439.562521 204.917769 
L 440.678893 204.921573 
L 448.046949 204.908022 
L 449.163321 204.936246 
L 450.279693 204.908758 
L 452.735712 204.894877 
L 454.298633 204.913744 
L 457.424475 204.918475 
L 458.540847 204.917497 
L 461.443414 204.895819 
L 461.889963 204.895577 
L 463.22961 204.926629 
L 465.685629 204.899107 
L 466.578726 204.938641 
L 468.364922 204.90124 
L 469.704568 204.912391 
L 470.82094 204.891312 
L 471.267489 204.896699 
L 473.500233 204.927054 
L 474.170057 204.903572 
L 474.83988 204.902718 
L 477.295899 204.92054 
L 484.44068 204.921128 
L 485.557052 204.915612 
L 491.585462 204.913726 
L 493.818206 204.908405 
L 494.934578 204.929793 
L 496.274225 204.907624 
L 497.390597 204.921887 
L 498.283695 204.918088 
L 500.962988 204.941526 
L 502.07936 204.896265 
L 504.758653 204.937207 
L 505.875025 204.898489 
L 665.962788 204.89586 
L 666.632611 224.776671 
L 667.302434 239.25033 
L 667.972257 249.832176 
L 668.642081 257.549415 
L 669.311904 263.135162 
L 669.981727 267.256784 
L 670.651551 270.237489 
L 671.544648 272.990301 
L 672.437746 274.794507 
L 673.107569 275.720441 
L 673.777392 276.333502 
L 674.000667 276.341315 
L 674.223941 276.214712 
L 674.67049 275.586381 
L 675.117039 274.637297 
L 676.010137 271.747175 
L 676.903234 268.116741 
L 679.582528 256.713461 
L 680.6989 253.243956 
L 681.368723 251.836003 
L 681.815272 251.117222 
L 682.485095 250.580286 
L 682.931644 250.522289 
L 683.378193 250.693246 
L 683.601467 250.813514 
L 684.494565 251.943277 
L 685.387663 253.684628 
L 689.183328 262.699045 
L 690.076425 263.955219 
L 690.746249 264.535625 
L 691.639346 264.652438 
L 692.085895 264.481871 
L 692.755719 263.916403 
L 693.872091 262.278695 
L 695.435012 258.910404 
L 697.221207 254.67313 
L 698.560854 251.853322 
L 699.453951 250.405167 
L 700.347049 249.318702 
L 701.463421 248.641151 
L 702.133244 248.514698 
L 703.249617 248.77722 
L 703.91944 249.075933 
L 707.715105 251.423572 
L 708.384928 251.576914 
L 709.724575 251.343129 
L 710.394398 250.991992 
L 711.734045 249.810744 
L 712.403868 248.996452 
L 713.743515 247.167522 
L 715.083161 245.231784 
L 715.976259 243.977942 
L 717.315905 242.335825 
L 718.209003 241.50697 
L 719.54865 240.680503 
L 719.995198 240.51981 
L 720.665022 240.351236 
L 721.781394 240.292592 
L 722.674491 240.393437 
L 724.014138 240.694362 
L 724.683961 240.846795 
L 726.916706 241.105586 
L 729.372724 240.538586 
L 730.935645 239.803622 
L 731.828743 239.259034 
L 733.838213 238.042175 
L 734.508036 237.637154 
L 736.517506 236.856587 
L 737.410604 236.658111 
L 738.080427 236.575426 
L 739.866622 236.621899 
L 745.671757 237.598408 
L 749.913971 237.006033 
L 753.263088 236.210922 
L 753.709637 236.16769 
L 754.602734 236.031171 
L 756.165655 235.9787 
L 756.835478 235.989062 
L 757.951851 236.077013 
L 758.844948 236.189 
L 760.631144 236.386278 
L 761.300967 236.507417 
L 762.194065 236.573662 
L 763.756986 236.725808 
L 764.426809 236.705701 
L 765.096632 236.735234 
L 774.697432 236.030062 
L 777.6 236.188331 
L 777.6 236.188331 
" style="fill:none;stroke:#0000ff;stroke-linecap:square;stroke-width:1.5;"/>
   </g>
   <g id="line2d_15">
    <path clip-path="url(#p9c34007a39)" d="M 108 292.465866 
L 108.446549 283.847222 
L 109.116372 262.333297 
L 112.01894 155.857021 
L 112.688763 141.236525 
L 113.135312 134.729608 
L 113.581861 130.820985 
L 113.805135 129.862659 
L 114.028409 129.537223 
L 114.251684 129.830809 
L 114.474958 130.711841 
L 114.921507 134.175205 
L 115.368056 139.761211 
L 116.037879 151.436219 
L 116.930977 171.737236 
L 118.717172 219.861195 
L 119.386996 235.662604 
L 120.056819 247.21941 
L 120.726642 255.640236 
L 121.396465 261.767335 
L 122.066289 266.201678 
L 122.736112 269.479018 
L 123.405935 271.867397 
L 124.075759 273.599856 
L 124.968856 275.173595 
L 125.192131 275.059317 
L 125.415405 274.604201 
L 125.861954 272.72361 
L 126.531777 268.022615 
L 127.424875 259.041342 
L 128.764522 242.696681 
L 130.550717 221.532111 
L 131.443815 213.442108 
L 132.113638 209.079911 
L 132.560187 207.036204 
L 133.006736 205.693856 
L 133.453284 205.163009 
L 133.676559 205.163525 
L 133.899833 205.33654 
L 134.346382 206.229888 
L 134.792931 207.765611 
L 135.462754 211.134435 
L 136.355852 217.300688 
L 137.695498 228.543372 
L 139.704968 245.03591 
L 140.598066 250.591907 
L 141.267889 253.574368 
L 141.937713 255.535666 
L 142.384261 256.163817 
L 142.607536 256.298079 
L 143.054085 256.146603 
L 143.500634 255.514617 
L 143.947182 254.455157 
L 144.617006 252.081745 
L 145.510103 247.715484 
L 146.84975 239.730558 
L 148.635945 229.176927 
L 149.529043 225.057807 
L 150.198866 222.705771 
L 150.86869 221.201141 
L 151.315238 220.635035 
L 151.761787 220.459662 
L 152.208336 220.639391 
L 152.654885 221.139756 
L 153.324708 222.535778 
L 153.994532 224.495224 
L 154.887629 227.851767 
L 158.236746 241.586325 
L 159.129843 243.995545 
L 159.799667 245.227585 
L 160.46949 245.858881 
L 160.916039 245.997388 
L 161.362588 245.847311 
L 161.809136 245.472191 
L 162.47896 244.444209 
L 163.148783 243.00932 
L 163.818606 241.298545 
L 165.828076 235.180108 
L 166.944448 232.048432 
L 167.614271 230.48878 
L 168.507369 228.94975 
L 169.177192 228.275822 
L 169.847016 228.017434 
L 170.516839 228.137936 
L 171.186662 228.711268 
L 171.633211 229.210199 
L 172.749583 231.071445 
L 174.08923 233.906518 
L 175.875425 237.665857 
L 176.768523 239.132273 
L 177.661621 240.15834 
L 178.331444 240.613316 
L 178.777993 240.784315 
L 179.447816 240.742168 
L 180.340914 240.272392 
L 181.010737 239.677519 
L 182.573658 237.577998 
L 185.476225 233.346013 
L 186.592598 232.328253 
L 187.262421 231.932998 
L 187.932244 231.77829 
L 189.048616 231.984495 
L 189.718439 232.316737 
L 191.504635 233.889004 
L 193.067556 235.648192 
L 194.853751 237.303608 
L 196.416672 238.104598 
L 197.30977 238.199218 
L 198.426142 237.978377 
L 200.658886 236.639783 
L 201.551984 235.926853 
L 202.445082 235.219662 
L 204.008003 234.251422 
L 204.9011 233.845976 
L 206.240747 233.634932 
L 206.91057 233.704049 
L 208.250217 234.067847 
L 208.92004 234.346353 
L 212.492431 236.207716 
L 214.278626 236.776578 
L 216.734645 236.725033 
L 218.52084 236.220177 
L 219.413938 235.832459 
L 220.307036 235.493688 
L 221.200133 235.216213 
L 221.869957 235.155496 
L 222.316506 235.341063 
L 222.763054 235.727787 
L 223.209603 236.346261 
L 223.656152 237.311351 
L 224.325975 239.421749 
L 224.995799 242.3468 
L 225.888896 247.47046 
L 227.005268 255.64601 
L 228.344915 265.769195 
L 229.014738 269.167264 
L 229.907836 272.276713 
L 230.577659 273.884524 
L 231.247482 275.068637 
L 231.917306 275.91057 
L 232.587129 276.575864 
L 233.703501 277.254321 
L 235.936245 277.921083 
L 236.382794 277.953314 
L 236.829343 278.004609 
L 242.857753 278.245767 
L 243.304301 278.225521 
L 244.420674 278.209766 
L 266.078293 278.245182 
L 266.97139 278.22507 
L 267.641214 278.24193 
L 268.98086 278.239286 
L 270.99033 278.263639 
L 271.436879 278.243862 
L 272.553251 278.261008 
L 273.223074 278.240234 
L 275.679093 278.223325 
L 276.572191 278.258551 
L 277.911837 278.250557 
L 279.251484 278.263643 
L 279.921307 278.232288 
L 286.172991 278.227834 
L 287.066089 278.246208 
L 288.182461 278.226473 
L 310.509903 278.251454 
L 311.179727 278.253796 
L 313.189196 278.238882 
L 314.528843 278.23524 
L 315.868489 278.244797 
L 317.654685 278.239214 
L 319.44088 278.217623 
L 320.110704 278.251727 
L 321.227076 278.22839 
L 325.46929 278.258001 
L 326.139113 278.248933 
L 327.255485 278.229566 
L 334.846816 278.237483 
L 335.739913 278.247231 
L 337.07956 278.246103 
L 338.419206 278.264386 
L 339.08903 278.242352 
L 341.098499 278.250497 
L 342.884695 278.265667 
L 343.554518 278.22642 
L 344.224341 278.265857 
L 347.573458 278.229334 
L 348.913104 278.228907 
L 350.252751 278.249636 
L 352.262221 278.261703 
L 353.825142 278.231389 
L 356.28116 278.246658 
L 358.067356 278.235562 
L 360.523374 278.235859 
L 361.416472 278.261252 
L 361.863021 278.259944 
L 364.542314 278.250677 
L 366.551784 278.251356 
L 367.668156 278.229337 
L 368.337979 278.238211 
L 369.454351 278.257704 
L 371.463821 278.255993 
L 372.133645 278.260225 
L 378.162054 278.220605 
L 378.608603 278.262597 
L 379.278426 278.252205 
L 381.51117 278.252328 
L 384.637012 278.256596 
L 385.306836 278.21531 
L 386.646482 278.264134 
L 387.762854 278.249579 
L 392.228343 278.243564 
L 393.12144 278.232414 
L 396.693831 278.235044 
L 398.256752 278.221631 
L 398.926576 278.265043 
L 400.489496 278.223813 
L 401.829143 278.23242 
L 406.294632 278.235531 
L 408.080827 278.250849 
L 410.313571 278.247648 
L 415.002334 278.259311 
L 415.895432 278.233332 
L 417.011804 278.254351 
L 436.883228 278.251963 
L 439.115972 278.250676 
L 439.785795 278.232474 
L 440.902167 278.235144 
L 447.823675 278.221896 
L 448.493498 278.266123 
L 448.940047 278.236664 
L 449.833144 278.262511 
L 450.502968 278.247137 
L 452.958986 278.260542 
L 454.745182 278.258442 
L 471.044215 278.2193 
L 471.490764 278.246853 
L 474.170057 278.217859 
L 474.83988 278.255371 
L 476.179527 278.241457 
L 481.314838 278.231957 
L 482.207936 278.267863 
L 482.877759 278.232103 
L 484.217406 278.256114 
L 485.333778 278.250179 
L 490.46909 278.232085 
L 491.362187 278.228719 
L 493.371657 278.223807 
L 494.488029 278.263826 
L 495.604401 278.216156 
L 496.274225 278.235763 
L 497.837146 278.226147 
L 499.176792 278.25893 
L 503.642281 278.246308 
L 504.758653 278.264555 
L 505.651751 278.222082 
L 506.768123 278.249743 
L 524.853351 278.239078 
L 525.523174 278.246041 
L 527.755919 278.240761 
L 556.335045 278.263476 
L 556.781594 278.219552 
L 557.228143 278.263774 
L 558.344515 278.220226 
L 559.237613 278.263365 
L 565.042748 278.248871 
L 566.382394 278.230259 
L 568.391864 278.245565 
L 571.74098 278.218017 
L 587.816739 278.219997 
L 588.486562 278.257127 
L 592.505502 278.230654 
L 593.621874 278.252925 
L 594.961521 278.236495 
L 596.077893 278.234649 
L 596.97099 278.263728 
L 598.533911 278.264135 
L 603.669223 278.26591 
L 604.339046 278.222015 
L 605.00887 278.257385 
L 605.455418 278.265081 
L 607.241614 278.231853 
L 608.134712 278.218472 
L 616.172591 278.249254 
L 617.288963 278.242289 
L 619.744982 278.267853 
L 620.191531 278.24845 
L 629.345782 278.226525 
L 629.792331 278.244965 
L 630.685428 278.247334 
L 636.713838 278.262693 
L 637.160387 278.25858 
L 646.314638 278.226721 
L 647.207736 278.263275 
L 647.877559 278.24018 
L 652.119773 278.249284 
L 653.012871 278.22406 
L 660.604201 278.251667 
L 661.497299 278.237178 
L 662.836946 278.267579 
L 663.730043 278.225005 
L 664.846415 278.225679 
L 666.855885 278.246386 
L 668.195532 278.216464 
L 669.311904 278.234347 
L 672.884295 278.21699 
L 674.67049 278.179491 
L 675.117039 277.622106 
L 675.563588 276.545741 
L 676.233411 274.304069 
L 677.349783 269.461869 
L 679.582528 259.33788 
L 680.6989 255.533837 
L 681.368723 253.88885 
L 681.815272 253.11031 
L 682.485095 252.352174 
L 682.931644 252.20513 
L 683.378193 252.238949 
L 683.824742 252.478685 
L 684.27129 252.969362 
L 685.164388 254.415327 
L 686.057486 256.319675 
L 688.736779 262.519274 
L 689.853151 264.269734 
L 690.522974 264.847943 
L 690.969523 265.046384 
L 691.416072 265.113963 
L 692.085895 264.825636 
L 692.532444 264.485092 
L 693.425542 263.305622 
L 694.541914 261.173712 
L 696.104835 257.491457 
L 698.114305 252.801988 
L 699.230677 250.786291 
L 699.9005 249.826311 
L 701.016872 248.852197 
L 701.686696 248.568152 
L 702.133244 248.494691 
L 703.026342 248.615756 
L 704.142714 249.157609 
L 706.598733 250.764385 
L 707.715105 251.267229 
L 708.384928 251.412049 
L 709.278026 251.311964 
L 710.394398 250.79817 
L 711.064221 250.254159 
L 712.180594 249.072459 
L 714.636612 245.648253 
L 715.976259 243.7284 
L 716.869356 242.609019 
L 717.53918 241.866793 
L 718.878826 240.720338 
L 720.888296 240.000221 
L 722.227943 240.009605 
L 723.567589 240.209829 
L 726.023608 240.661934 
L 727.809803 240.611898 
L 730.265822 239.696258 
L 731.382194 239.093874 
L 734.061487 237.40671 
L 734.954585 236.950242 
L 735.847683 236.551961 
L 738.080427 236.023697 
L 740.982994 236.260546 
L 742.099366 236.476238 
L 743.439013 236.721861 
L 744.108836 236.855091 
L 746.118306 236.960062 
L 747.904502 236.79058 
L 750.137246 236.352915 
L 751.030343 236.07945 
L 753.486362 235.564748 
L 754.602734 235.381873 
L 755.272558 235.337594 
L 756.612204 235.313793 
L 757.282027 235.361499 
L 758.175125 235.410026 
L 760.631144 235.709117 
L 761.300967 235.795376 
L 762.194065 235.901694 
L 763.087162 235.958632 
L 763.533711 236.007065 
L 767.329376 235.894677 
L 770.455218 235.53884 
L 771.571591 235.413884 
L 772.241414 235.397998 
L 773.134512 235.322525 
L 776.706902 235.428084 
L 777.6 235.490303 
L 777.6 235.490303 
" style="fill:none;stroke:#008000;stroke-linecap:square;stroke-width:1.5;"/>
   </g>
   <g id="line2d_16">
    <path clip-path="url(#p9c34007a39)" d="M 108 292.480937 
L 108.446549 283.851862 
L 109.116372 262.323436 
L 112.01894 155.880001 
L 112.688763 141.253386 
L 113.135312 134.771322 
L 113.581861 130.922224 
L 113.805135 129.981296 
L 114.028409 129.643942 
L 114.251684 130.013379 
L 114.474958 130.96857 
L 114.921507 134.603062 
L 115.368056 140.337652 
L 116.037879 152.479254 
L 116.930977 173.55248 
L 118.493898 217.209068 
L 119.163721 233.744516 
L 119.833545 245.796003 
L 120.503368 254.584213 
L 121.173191 261.028362 
L 121.843014 265.689728 
L 122.512838 269.080122 
L 123.182661 271.550702 
L 123.852484 273.400888 
L 124.745582 275.042869 
L 125.192131 275.548128 
L 125.415405 275.306284 
L 125.63868 274.687219 
L 126.085228 272.495142 
L 126.755052 267.35477 
L 127.648149 257.930858 
L 129.21107 238.474726 
L 130.550717 222.806411 
L 131.443815 214.601787 
L 132.113638 210.111314 
L 132.560187 208.043163 
L 133.006736 206.736655 
L 133.453284 206.140501 
L 133.676559 206.145145 
L 133.899833 206.327195 
L 134.346382 207.18109 
L 134.792931 208.772897 
L 135.23948 210.869493 
L 136.132578 216.683706 
L 137.24895 225.844026 
L 139.481694 244.948777 
L 140.374792 250.984712 
L 141.267889 255.292807 
L 141.937713 257.196599 
L 142.384261 257.848289 
L 142.83081 257.921682 
L 143.054085 257.791886 
L 143.500634 257.190693 
L 144.170457 255.335183 
L 144.84028 252.608232 
L 145.733378 247.941086 
L 149.529043 226.108641 
L 150.422141 223.1829 
L 150.86869 222.207013 
L 151.315238 221.659991 
L 151.761787 221.445249 
L 152.208336 221.601202 
L 152.654885 222.120829 
L 153.101434 223.009029 
L 153.771257 224.802495 
L 154.44108 227.095425 
L 156.45055 235.733382 
L 157.790197 241.237327 
L 158.683294 244.128801 
L 159.576392 246.155123 
L 160.246215 246.958549 
L 160.692764 247.227247 
L 161.139313 247.192784 
L 161.585862 246.913823 
L 162.032411 246.386606 
L 162.47896 245.667437 
L 163.372057 243.668913 
L 164.711704 239.761336 
L 166.497899 234.255983 
L 167.390997 231.969683 
L 168.284095 230.253676 
L 168.953918 229.427018 
L 169.400467 229.124903 
L 169.847016 228.980589 
L 170.516839 229.112027 
L 171.186662 229.642096 
L 172.07976 230.846223 
L 172.972858 232.492673 
L 176.321974 239.514532 
L 177.438346 241.030523 
L 178.108169 241.583648 
L 178.777993 241.836842 
L 179.447816 241.846974 
L 180.564188 241.186062 
L 181.457286 240.202132 
L 182.573658 238.622045 
L 184.136579 236.133654 
L 185.6995 234.070152 
L 186.815872 233.096432 
L 187.485695 232.817863 
L 188.155519 232.692638 
L 189.495165 233.143934 
L 190.164988 233.563591 
L 191.951184 235.347104 
L 193.960654 237.539032 
L 195.970123 238.937035 
L 197.086495 239.216801 
L 198.202868 239.04689 
L 199.542514 238.432987 
L 200.882161 237.426787 
L 201.551984 236.901391 
L 204.008003 235.184996 
L 205.347649 234.71582 
L 206.240747 234.592928 
L 207.803668 234.86934 
L 209.143314 235.387785 
L 210.259687 236.028819 
L 211.822608 236.864418 
L 212.492431 237.184003 
L 214.055352 237.69246 
L 215.618273 237.87364 
L 218.074291 237.364755 
L 219.190664 236.912492 
L 220.083761 236.560002 
L 221.200133 236.165819 
L 221.646682 236.129493 
L 222.316506 236.306233 
L 222.763054 236.686887 
L 223.209603 237.291329 
L 223.879426 238.851992 
L 224.54925 241.24127 
L 225.219073 244.437534 
L 226.112171 249.935073 
L 227.228543 258.344656 
L 228.121641 265.113485 
L 229.014738 269.638077 
L 229.907836 272.606453 
L 230.800934 274.536731 
L 231.694031 275.82764 
L 232.587129 276.632804 
L 233.256952 277.064997 
L 234.596599 277.625942 
L 237.275892 278.085932 
L 238.838813 278.135084 
L 239.285362 278.191528 
L 239.955185 278.199627 
L 242.634478 278.210728 
L 243.304301 278.252105 
L 244.643948 278.21192 
L 248.439613 278.234262 
L 250.002534 278.215458 
L 250.449083 278.218968 
L 252.681827 278.23061 
L 256.924041 278.264544 
L 257.593865 278.225745 
L 258.263688 278.248441 
L 260.273158 278.253237 
L 261.38953 278.237195 
L 291.531577 278.227506 
L 293.764321 278.219316 
L 306.937513 278.246434 
L 307.607336 278.258131 
L 317.654685 278.258045 
L 318.101234 278.244334 
L 318.994331 278.263119 
L 319.664155 278.215337 
L 320.333978 278.244417 
L 321.673625 278.254662 
L 322.343448 278.258659 
L 341.991597 278.249749 
L 344.67089 278.223226 
L 347.796732 278.220646 
L 348.68983 278.242826 
L 350.6993 278.222554 
L 351.592397 278.266588 
L 352.038946 278.239909 
L 354.718239 278.263958 
L 355.834612 278.230868 
L 358.513905 278.244527 
L 360.523374 278.231586 
L 361.416472 278.243382 
L 379.724975 278.232496 
L 381.51117 278.224545 
L 382.627543 278.245396 
L 403.838613 278.249758 
L 405.178259 278.252459 
L 407.411004 278.227746 
L 408.75065 278.265289 
L 410.090297 278.237807 
L 410.76012 278.257068 
L 411.653218 278.219615 
L 412.76959 278.264444 
L 414.109236 278.239469 
L 415.002334 278.244628 
L 416.118706 278.224235 
L 416.78853 278.249788 
L 417.681627 278.227695 
L 418.574725 278.239055 
L 421.254018 278.224973 
L 421.923841 278.243991 
L 441.348716 278.233647 
L 442.465088 278.230782 
L 443.358186 278.254817 
L 444.028009 278.265653 
L 445.59093 278.239289 
L 446.260754 278.238351 
L 447.153851 278.250613 
L 452.289163 278.258649 
L 452.958986 278.217802 
L 453.852084 278.233332 
L 456.084828 278.224048 
L 456.977926 278.229264 
L 462.336512 278.259707 
L 522.843881 278.218603 
L 523.513705 278.260722 
L 526.416272 278.222657 
L 527.086095 278.260655 
L 529.542114 278.236079 
L 530.435212 278.2607 
L 531.105035 278.230538 
L 532.89123 278.267339 
L 533.561054 278.260035 
L 537.579993 278.230451 
L 538.91964 278.259292 
L 539.812738 278.240371 
L 541.152384 278.261603 
L 541.822207 278.215438 
L 543.608403 278.248179 
L 544.948049 278.223387 
L 546.064421 278.245328 
L 546.957519 278.258479 
L 553.432477 278.254185 
L 554.102301 278.231472 
L 554.772124 278.239305 
L 563.033278 278.236774 
L 564.372924 278.221966 
L 566.382394 278.233327 
L 571.071157 278.220268 
L 571.517706 278.230544 
L 573.080627 278.225802 
L 573.75045 278.253481 
L 575.090097 278.241586 
L 578.885762 278.24566 
L 580.002134 278.240727 
L 583.797799 278.229874 
L 586.477092 278.25839 
L 589.156385 278.247934 
L 590.942581 278.232213 
L 591.835679 278.259343 
L 594.961521 278.231696 
L 595.631344 278.217758 
L 601.213204 278.239162 
L 604.339046 278.235848 
L 605.901967 278.242262 
L 606.795065 278.261018 
L 611.483828 278.238764 
L 612.153651 278.21559 
L 614.163121 278.265711 
L 614.832944 278.215475 
L 615.279493 278.2398 
L 618.182061 278.230026 
L 619.075158 278.245422 
L 620.191531 278.229059 
L 620.861354 278.23795 
L 621.977726 278.223856 
L 622.647549 278.250059 
L 623.317372 278.26641 
L 625.550117 278.231159 
L 626.21994 278.236726 
L 628.22941 278.246326 
L 629.569056 278.234085 
L 631.131977 278.251155 
L 634.034545 278.261716 
L 634.927643 278.221134 
L 635.82074 278.244419 
L 636.937112 278.228905 
L 637.606936 278.265792 
L 638.276759 278.242469 
L 638.946582 278.219 
L 639.616405 278.241351 
L 642.742247 278.251888 
L 643.412071 278.247313 
L 650.110303 278.229792 
L 651.003401 278.26713 
L 653.236145 278.24472 
L 655.022341 278.265799 
L 655.46889 278.24361 
L 656.585262 278.261008 
L 657.924908 278.219433 
L 658.594732 278.25933 
L 659.711104 278.251323 
L 674.67049 278.209816 
L 675.117039 277.624043 
L 675.563588 276.567584 
L 676.233411 274.300646 
L 677.349783 269.498971 
L 679.135979 261.253501 
L 680.252351 256.929706 
L 681.145448 254.442908 
L 681.815272 253.154905 
L 682.261821 252.592383 
L 682.708369 252.28012 
L 683.154918 252.234271 
L 683.601467 252.408394 
L 684.27129 253.042767 
L 685.164388 254.496944 
L 686.950584 258.617892 
L 688.513505 262.26886 
L 689.629877 264.151402 
L 690.076425 264.682353 
L 690.746249 265.194692 
L 691.416072 265.315747 
L 691.862621 265.176703 
L 692.532444 264.668953 
L 692.978993 264.178939 
L 693.872091 262.76393 
L 695.658286 258.7715 
L 698.560854 252.12584 
L 699.677226 250.345848 
L 700.570323 249.375467 
L 701.240147 248.958032 
L 701.686696 248.763192 
L 702.803068 248.778679 
L 705.259086 250.15457 
L 706.152184 250.820008 
L 707.491831 251.513088 
L 708.161654 251.701478 
L 709.5013 251.561746 
L 710.171124 251.261913 
L 710.840947 250.8019 
L 711.734045 249.960502 
L 713.296966 247.961289 
L 714.859887 245.687627 
L 715.752984 244.396862 
L 716.869356 242.945895 
L 718.209003 241.646742 
L 719.102101 240.996363 
L 719.995198 240.612807 
L 721.558119 240.408209 
L 723.344315 240.660334 
L 725.13051 241.064747 
L 727.809803 241.173581 
L 729.372724 240.715924 
L 731.15892 239.835024 
L 732.275292 239.124718 
L 733.168389 238.594038 
L 734.284762 237.928531 
L 735.624408 237.308439 
L 737.187329 236.874164 
L 738.526976 236.715317 
L 741.429543 237.088848 
L 745.001934 237.755816 
L 745.671757 237.798114 
L 747.234678 237.724257 
L 748.797599 237.458354 
L 751.923441 236.751573 
L 752.593264 236.58714 
L 753.486362 236.444276 
L 754.37946 236.29066 
L 757.282027 236.217844 
L 757.728576 236.283324 
L 758.621674 236.344362 
L 759.291497 236.476783 
L 759.96132 236.534131 
L 761.077693 236.707578 
L 762.640614 236.849815 
L 763.310437 236.916823 
L 766.213004 236.90597 
L 767.552651 236.795084 
L 768.445749 236.710439 
L 771.348316 236.375742 
L 771.794865 236.347031 
L 773.134512 236.268668 
L 776.483628 236.341233 
L 777.6 236.44154 
L 777.6 236.44154 
" style="fill:none;stroke:#bfbf00;stroke-linecap:square;stroke-width:1.5;"/>
   </g>
   <g id="line2d_17">
    <path clip-path="url(#p9c34007a39)" d="M 108 294.054545 
L 777.6 294.054545 
L 777.6 294.054545 
" style="fill:none;stroke:#ff0000;stroke-linecap:square;stroke-width:1.5;"/>
   </g>
   <g id="line2d_18">
    <path clip-path="url(#p9c34007a39)" d="M 108 294.054545 
L 777.6 294.054545 
L 777.6 294.054545 
" style="fill:none;stroke:#0000ff;stroke-linecap:square;stroke-width:1.5;"/>
   </g>
   <g id="line2d_19">
    <path clip-path="url(#p9c34007a39)" d="M 108 294.054545 
L 777.6 294.054545 
L 777.6 294.054545 
" style="fill:none;stroke:#008000;stroke-linecap:square;stroke-width:1.5;"/>
   </g>
   <g id="line2d_20">
    <path clip-path="url(#p9c34007a39)" d="M 108 294.054545 
L 777.6 294.054545 
L 777.6 294.054545 
" style="fill:none;stroke:#bfbf00;stroke-linecap:square;stroke-width:1.5;"/>
   </g>
   <g id="patch_3">
    <path d="M 108 306 
L 108 43.2 
" style="fill:none;stroke:#000000;stroke-linecap:square;stroke-linejoin:miter;stroke-width:0.8;"/>
   </g>
   <g id="patch_4">
    <path d="M 777.6 306 
L 777.6 43.2 
" style="fill:none;stroke:#000000;stroke-linecap:square;stroke-linejoin:miter;stroke-width:0.8;"/>
   </g>
   <g id="patch_5">
    <path d="M 108 306 
L 777.6 306 
" style="fill:none;stroke:#000000;stroke-linecap:square;stroke-linejoin:miter;stroke-width:0.8;"/>
   </g>
   <g id="patch_6">
    <path d="M 108 43.2 
L 777.6 43.2 
" style="fill:none;stroke:#000000;stroke-linecap:square;stroke-linejoin:miter;stroke-width:0.8;"/>
   </g>
   <g id="legend_1">
    <g id="line2d_21">
     <path d="M 117 56.298437 
L 137 56.298437 
" style="fill:none;stroke:#bfbf00;stroke-linecap:square;stroke-width:1.5;"/>
    </g>
    <g id="line2d_22"/>
    <g id="text_15">
     <!-- Cognitive Cortex -->
     <defs>
      <path d="M 64.40625 67.28125 
L 64.40625 56.890625 
Q 59.421875 61.53125 53.78125 63.8125 
Q 48.140625 66.109375 41.796875 66.109375 
Q 29.296875 66.109375 22.65625 58.46875 
Q 16.015625 50.828125 16.015625 36.375 
Q 16.015625 21.96875 22.65625 14.328125 
Q 29.296875 6.6875 41.796875 6.6875 
Q 48.140625 6.6875 53.78125 8.984375 
Q 59.421875 11.28125 64.40625 15.921875 
L 64.40625 5.609375 
Q 59.234375 2.09375 53.4375 0.328125 
Q 47.65625 -1.421875 41.21875 -1.421875 
Q 24.65625 -1.421875 15.125 8.703125 
Q 5.609375 18.84375 5.609375 36.375 
Q 5.609375 53.953125 15.125 64.078125 
Q 24.65625 74.21875 41.21875 74.21875 
Q 47.75 74.21875 53.53125 72.484375 
Q 59.328125 70.75 64.40625 67.28125 
z
" id="DejaVuSans-43"/>
      <path d="M 45.40625 27.984375 
Q 45.40625 37.75 41.375 43.109375 
Q 37.359375 48.484375 30.078125 48.484375 
Q 22.859375 48.484375 18.828125 43.109375 
Q 14.796875 37.75 14.796875 27.984375 
Q 14.796875 18.265625 18.828125 12.890625 
Q 22.859375 7.515625 30.078125 7.515625 
Q 37.359375 7.515625 41.375 12.890625 
Q 45.40625 18.265625 45.40625 27.984375 
z
M 54.390625 6.78125 
Q 54.390625 -7.171875 48.1875 -13.984375 
Q 42 -20.796875 29.203125 -20.796875 
Q 24.46875 -20.796875 20.265625 -20.09375 
Q 16.0625 -19.390625 12.109375 -17.921875 
L 12.109375 -9.1875 
Q 16.0625 -11.328125 19.921875 -12.34375 
Q 23.78125 -13.375 27.78125 -13.375 
Q 36.625 -13.375 41.015625 -8.765625 
Q 45.40625 -4.15625 45.40625 5.171875 
L 45.40625 9.625 
Q 42.625 4.78125 38.28125 2.390625 
Q 33.9375 0 27.875 0 
Q 17.828125 0 11.671875 7.65625 
Q 5.515625 15.328125 5.515625 27.984375 
Q 5.515625 40.671875 11.671875 48.328125 
Q 17.828125 56 27.875 56 
Q 33.9375 56 38.28125 53.609375 
Q 42.625 51.21875 45.40625 46.390625 
L 45.40625 54.6875 
L 54.390625 54.6875 
z
" id="DejaVuSans-67"/>
      <path d="M 41.109375 46.296875 
Q 39.59375 47.171875 37.8125 47.578125 
Q 36.03125 48 33.890625 48 
Q 26.265625 48 22.1875 43.046875 
Q 18.109375 38.09375 18.109375 28.8125 
L 18.109375 0 
L 9.078125 0 
L 9.078125 54.6875 
L 18.109375 54.6875 
L 18.109375 46.1875 
Q 20.953125 51.171875 25.484375 53.578125 
Q 30.03125 56 36.53125 56 
Q 37.453125 56 38.578125 55.875 
Q 39.703125 55.765625 41.0625 55.515625 
z
" id="DejaVuSans-72"/>
      <path d="M 54.890625 54.6875 
L 35.109375 28.078125 
L 55.90625 0 
L 45.3125 0 
L 29.390625 21.484375 
L 13.484375 0 
L 2.875 0 
L 24.125 28.609375 
L 4.6875 54.6875 
L 15.28125 54.6875 
L 29.78125 35.203125 
L 44.28125 54.6875 
z
" id="DejaVuSans-78"/>
     </defs>
     <g transform="translate(145 59.798437)scale(0.1 -0.1)">
      <use xlink:href="#DejaVuSans-43"/>
      <use x="69.824219" xlink:href="#DejaVuSans-6f"/>
      <use x="131.005859" xlink:href="#DejaVuSans-67"/>
      <use x="194.482422" xlink:href="#DejaVuSans-6e"/>
      <use x="257.861328" xlink:href="#DejaVuSans-69"/>
      <use x="285.644531" xlink:href="#DejaVuSans-74"/>
      <use x="324.853516" xlink:href="#DejaVuSans-69"/>
      <use x="352.636719" xlink:href="#DejaVuSans-76"/>
      <use x="411.816406" xlink:href="#DejaVuSans-65"/>
      <use x="473.339844" xlink:href="#DejaVuSans-20"/>
      <use x="505.126953" xlink:href="#DejaVuSans-43"/>
      <use x="574.951172" xlink:href="#DejaVuSans-6f"/>
      <use x="636.132812" xlink:href="#DejaVuSans-72"/>
      <use x="677.246094" xlink:href="#DejaVuSans-74"/>
      <use x="716.455078" xlink:href="#DejaVuSans-65"/>
      <use x="777.962891" xlink:href="#DejaVuSans-78"/>
     </g>
    </g>
    <g id="line2d_23">
     <path d="M 117 70.976562 
L 137 70.976562 
" style="fill:none;stroke:#bfbf00;stroke-linecap:square;stroke-width:1.5;"/>
    </g>
    <g id="line2d_24"/>
    <g id="text_16">
     <!-- Motor Cortex -->
     <defs>
      <path d="M 9.8125 72.90625 
L 24.515625 72.90625 
L 43.109375 23.296875 
L 61.8125 72.90625 
L 76.515625 72.90625 
L 76.515625 0 
L 66.890625 0 
L 66.890625 64.015625 
L 48.09375 14.015625 
L 38.1875 14.015625 
L 19.390625 64.015625 
L 19.390625 0 
L 9.8125 0 
z
" id="DejaVuSans-4d"/>
     </defs>
     <g transform="translate(145 74.476562)scale(0.1 -0.1)">
      <use xlink:href="#DejaVuSans-4d"/>
      <use x="86.279297" xlink:href="#DejaVuSans-6f"/>
      <use x="147.460938" xlink:href="#DejaVuSans-74"/>
      <use x="186.669922" xlink:href="#DejaVuSans-6f"/>
      <use x="247.851562" xlink:href="#DejaVuSans-72"/>
      <use x="288.964844" xlink:href="#DejaVuSans-20"/>
      <use x="320.751953" xlink:href="#DejaVuSans-43"/>
      <use x="390.576172" xlink:href="#DejaVuSans-6f"/>
      <use x="451.757812" xlink:href="#DejaVuSans-72"/>
      <use x="492.871094" xlink:href="#DejaVuSans-74"/>
      <use x="532.080078" xlink:href="#DejaVuSans-65"/>
      <use x="593.587891" xlink:href="#DejaVuSans-78"/>
     </g>
    </g>
   </g>
  </g>
 </g>
 <defs>
  <clipPath id="p9c34007a39">
   <rect height="262.8" width="669.6" x="108" y="43.2"/>
  </clipPath>
 </defs>
</svg>
