<?xml version="1.0" encoding="utf-8" standalone="no"?>
<!DOCTYPE svg PUBLIC "-//W3C//DTD SVG 1.1//EN"
  "http://www.w3.org/Graphics/SVG/1.1/DTD/svg11.dtd">
<!-- Created with matplotlib (http://matplotlib.org/) -->
<svg height="360pt" version="1.1" viewBox="0 0 864 360" width="864pt" xmlns="http://www.w3.org/2000/svg" xmlns:xlink="http://www.w3.org/1999/xlink">
 <defs>
  <style type="text/css">
*{stroke-linecap:butt;stroke-linejoin:round;}
  </style>
 </defs>
 <g id="figure_1">
  <g id="patch_1">
   <path d="M 0 360 
L 864 360 
L 864 0 
L 0 0 
z
" style="fill:#ffffff;"/>
  </g>
  <g id="axes_1">
   <g id="patch_2">
    <path d="M 108 306 
L 777.6 306 
L 777.6 43.2 
L 108 43.2 
z
" style="fill:#ffffff;"/>
   </g>
   <g id="matplotlib.axis_1">
    <g id="xtick_1">
     <g id="line2d_1">
      <defs>
       <path d="M 0 0 
L 0 3.5 
" id="m0dfc2ebd93" style="stroke:#000000;stroke-width:0.8;"/>
      </defs>
      <g>
       <use style="stroke:#000000;stroke-width:0.8;" x="108" xlink:href="#m0dfc2ebd93" y="306"/>
      </g>
     </g>
     <g id="text_1">
      <!-- 0.0 -->
      <defs>
       <path d="M 31.78125 66.40625 
Q 24.171875 66.40625 20.328125 58.90625 
Q 16.5 51.421875 16.5 36.375 
Q 16.5 21.390625 20.328125 13.890625 
Q 24.171875 6.390625 31.78125 6.390625 
Q 39.453125 6.390625 43.28125 13.890625 
Q 47.125 21.390625 47.125 36.375 
Q 47.125 51.421875 43.28125 58.90625 
Q 39.453125 66.40625 31.78125 66.40625 
z
M 31.78125 74.21875 
Q 44.046875 74.21875 50.515625 64.515625 
Q 56.984375 54.828125 56.984375 36.375 
Q 56.984375 17.96875 50.515625 8.265625 
Q 44.046875 -1.421875 31.78125 -1.421875 
Q 19.53125 -1.421875 13.0625 8.265625 
Q 6.59375 17.96875 6.59375 36.375 
Q 6.59375 54.828125 13.0625 64.515625 
Q 19.53125 74.21875 31.78125 74.21875 
z
" id="DejaVuSans-30"/>
       <path d="M 10.6875 12.40625 
L 21 12.40625 
L 21 0 
L 10.6875 0 
z
" id="DejaVuSans-2e"/>
      </defs>
      <g transform="translate(100.048438 320.598437)scale(0.1 -0.1)">
       <use xlink:href="#DejaVuSans-30"/>
       <use x="63.623047" xlink:href="#DejaVuSans-2e"/>
       <use x="95.410156" xlink:href="#DejaVuSans-30"/>
      </g>
     </g>
    </g>
    <g id="xtick_2">
     <g id="line2d_2">
      <g>
       <use style="stroke:#000000;stroke-width:0.8;" x="219.6" xlink:href="#m0dfc2ebd93" y="306"/>
      </g>
     </g>
     <g id="text_2">
      <!-- 0.5 -->
      <defs>
       <path d="M 10.796875 72.90625 
L 49.515625 72.90625 
L 49.515625 64.59375 
L 19.828125 64.59375 
L 19.828125 46.734375 
Q 21.96875 47.46875 24.109375 47.828125 
Q 26.265625 48.1875 28.421875 48.1875 
Q 40.625 48.1875 47.75 41.5 
Q 54.890625 34.8125 54.890625 23.390625 
Q 54.890625 11.625 47.5625 5.09375 
Q 40.234375 -1.421875 26.90625 -1.421875 
Q 22.3125 -1.421875 17.546875 -0.640625 
Q 12.796875 0.140625 7.71875 1.703125 
L 7.71875 11.625 
Q 12.109375 9.234375 16.796875 8.0625 
Q 21.484375 6.890625 26.703125 6.890625 
Q 35.15625 6.890625 40.078125 11.328125 
Q 45.015625 15.765625 45.015625 23.390625 
Q 45.015625 31 40.078125 35.4375 
Q 35.15625 39.890625 26.703125 39.890625 
Q 22.75 39.890625 18.8125 39.015625 
Q 14.890625 38.140625 10.796875 36.28125 
z
" id="DejaVuSans-35"/>
      </defs>
      <g transform="translate(211.648438 320.598437)scale(0.1 -0.1)">
       <use xlink:href="#DejaVuSans-30"/>
       <use x="63.623047" xlink:href="#DejaVuSans-2e"/>
       <use x="95.410156" xlink:href="#DejaVuSans-35"/>
      </g>
     </g>
    </g>
    <g id="xtick_3">
     <g id="line2d_3">
      <g>
       <use style="stroke:#000000;stroke-width:0.8;" x="331.2" xlink:href="#m0dfc2ebd93" y="306"/>
      </g>
     </g>
     <g id="text_3">
      <!-- 1.0 -->
      <defs>
       <path d="M 12.40625 8.296875 
L 28.515625 8.296875 
L 28.515625 63.921875 
L 10.984375 60.40625 
L 10.984375 69.390625 
L 28.421875 72.90625 
L 38.28125 72.90625 
L 38.28125 8.296875 
L 54.390625 8.296875 
L 54.390625 0 
L 12.40625 0 
z
" id="DejaVuSans-31"/>
      </defs>
      <g transform="translate(323.248437 320.598437)scale(0.1 -0.1)">
       <use xlink:href="#DejaVuSans-31"/>
       <use x="63.623047" xlink:href="#DejaVuSans-2e"/>
       <use x="95.410156" xlink:href="#DejaVuSans-30"/>
      </g>
     </g>
    </g>
    <g id="xtick_4">
     <g id="line2d_4">
      <g>
       <use style="stroke:#000000;stroke-width:0.8;" x="442.8" xlink:href="#m0dfc2ebd93" y="306"/>
      </g>
     </g>
     <g id="text_4">
      <!-- 1.5 -->
      <g transform="translate(434.848437 320.598437)scale(0.1 -0.1)">
       <use xlink:href="#DejaVuSans-31"/>
       <use x="63.623047" xlink:href="#DejaVuSans-2e"/>
       <use x="95.410156" xlink:href="#DejaVuSans-35"/>
      </g>
     </g>
    </g>
    <g id="xtick_5">
     <g id="line2d_5">
      <g>
       <use style="stroke:#000000;stroke-width:0.8;" x="554.4" xlink:href="#m0dfc2ebd93" y="306"/>
      </g>
     </g>
     <g id="text_5">
      <!-- 2.0 -->
      <defs>
       <path d="M 19.1875 8.296875 
L 53.609375 8.296875 
L 53.609375 0 
L 7.328125 0 
L 7.328125 8.296875 
Q 12.9375 14.109375 22.625 23.890625 
Q 32.328125 33.6875 34.8125 36.53125 
Q 39.546875 41.84375 41.421875 45.53125 
Q 43.3125 49.21875 43.3125 52.78125 
Q 43.3125 58.59375 39.234375 62.25 
Q 35.15625 65.921875 28.609375 65.921875 
Q 23.96875 65.921875 18.8125 64.3125 
Q 13.671875 62.703125 7.8125 59.421875 
L 7.8125 69.390625 
Q 13.765625 71.78125 18.9375 73 
Q 24.125 74.21875 28.421875 74.21875 
Q 39.75 74.21875 46.484375 68.546875 
Q 53.21875 62.890625 53.21875 53.421875 
Q 53.21875 48.921875 51.53125 44.890625 
Q 49.859375 40.875 45.40625 35.40625 
Q 44.1875 33.984375 37.640625 27.21875 
Q 31.109375 20.453125 19.1875 8.296875 
z
" id="DejaVuSans-32"/>
      </defs>
      <g transform="translate(546.448437 320.598437)scale(0.1 -0.1)">
       <use xlink:href="#DejaVuSans-32"/>
       <use x="63.623047" xlink:href="#DejaVuSans-2e"/>
       <use x="95.410156" xlink:href="#DejaVuSans-30"/>
      </g>
     </g>
    </g>
    <g id="xtick_6">
     <g id="line2d_6">
      <g>
       <use style="stroke:#000000;stroke-width:0.8;" x="666" xlink:href="#m0dfc2ebd93" y="306"/>
      </g>
     </g>
     <g id="text_6">
      <!-- 2.5 -->
      <g transform="translate(658.048437 320.598437)scale(0.1 -0.1)">
       <use xlink:href="#DejaVuSans-32"/>
       <use x="63.623047" xlink:href="#DejaVuSans-2e"/>
       <use x="95.410156" xlink:href="#DejaVuSans-35"/>
      </g>
     </g>
    </g>
    <g id="xtick_7">
     <g id="line2d_7">
      <g>
       <use style="stroke:#000000;stroke-width:0.8;" x="777.6" xlink:href="#m0dfc2ebd93" y="306"/>
      </g>
     </g>
     <g id="text_7">
      <!-- 3.0 -->
      <defs>
       <path d="M 40.578125 39.3125 
Q 47.65625 37.796875 51.625 33 
Q 55.609375 28.21875 55.609375 21.1875 
Q 55.609375 10.40625 48.1875 4.484375 
Q 40.765625 -1.421875 27.09375 -1.421875 
Q 22.515625 -1.421875 17.65625 -0.515625 
Q 12.796875 0.390625 7.625 2.203125 
L 7.625 11.71875 
Q 11.71875 9.328125 16.59375 8.109375 
Q 21.484375 6.890625 26.8125 6.890625 
Q 36.078125 6.890625 40.9375 10.546875 
Q 45.796875 14.203125 45.796875 21.1875 
Q 45.796875 27.640625 41.28125 31.265625 
Q 36.765625 34.90625 28.71875 34.90625 
L 20.21875 34.90625 
L 20.21875 43.015625 
L 29.109375 43.015625 
Q 36.375 43.015625 40.234375 45.921875 
Q 44.09375 48.828125 44.09375 54.296875 
Q 44.09375 59.90625 40.109375 62.90625 
Q 36.140625 65.921875 28.71875 65.921875 
Q 24.65625 65.921875 20.015625 65.03125 
Q 15.375 64.15625 9.8125 62.3125 
L 9.8125 71.09375 
Q 15.4375 72.65625 20.34375 73.4375 
Q 25.25 74.21875 29.59375 74.21875 
Q 40.828125 74.21875 47.359375 69.109375 
Q 53.90625 64.015625 53.90625 55.328125 
Q 53.90625 49.265625 50.4375 45.09375 
Q 46.96875 40.921875 40.578125 39.3125 
z
" id="DejaVuSans-33"/>
      </defs>
      <g transform="translate(769.648437 320.598437)scale(0.1 -0.1)">
       <use xlink:href="#DejaVuSans-33"/>
       <use x="63.623047" xlink:href="#DejaVuSans-2e"/>
       <use x="95.410156" xlink:href="#DejaVuSans-30"/>
      </g>
     </g>
    </g>
    <g id="text_8">
     <!-- Time (seconds) -->
     <defs>
      <path d="M -0.296875 72.90625 
L 61.375 72.90625 
L 61.375 64.59375 
L 35.5 64.59375 
L 35.5 0 
L 25.59375 0 
L 25.59375 64.59375 
L -0.296875 64.59375 
z
" id="DejaVuSans-54"/>
      <path d="M 9.421875 54.6875 
L 18.40625 54.6875 
L 18.40625 0 
L 9.421875 0 
z
M 9.421875 75.984375 
L 18.40625 75.984375 
L 18.40625 64.59375 
L 9.421875 64.59375 
z
" id="DejaVuSans-69"/>
      <path d="M 52 44.1875 
Q 55.375 50.25 60.0625 53.125 
Q 64.75 56 71.09375 56 
Q 79.640625 56 84.28125 50.015625 
Q 88.921875 44.046875 88.921875 33.015625 
L 88.921875 0 
L 79.890625 0 
L 79.890625 32.71875 
Q 79.890625 40.578125 77.09375 44.375 
Q 74.3125 48.1875 68.609375 48.1875 
Q 61.625 48.1875 57.5625 43.546875 
Q 53.515625 38.921875 53.515625 30.90625 
L 53.515625 0 
L 44.484375 0 
L 44.484375 32.71875 
Q 44.484375 40.625 41.703125 44.40625 
Q 38.921875 48.1875 33.109375 48.1875 
Q 26.21875 48.1875 22.15625 43.53125 
Q 18.109375 38.875 18.109375 30.90625 
L 18.109375 0 
L 9.078125 0 
L 9.078125 54.6875 
L 18.109375 54.6875 
L 18.109375 46.1875 
Q 21.1875 51.21875 25.484375 53.609375 
Q 29.78125 56 35.6875 56 
Q 41.65625 56 45.828125 52.96875 
Q 50 49.953125 52 44.1875 
z
" id="DejaVuSans-6d"/>
      <path d="M 56.203125 29.59375 
L 56.203125 25.203125 
L 14.890625 25.203125 
Q 15.484375 15.921875 20.484375 11.0625 
Q 25.484375 6.203125 34.421875 6.203125 
Q 39.59375 6.203125 44.453125 7.46875 
Q 49.3125 8.734375 54.109375 11.28125 
L 54.109375 2.78125 
Q 49.265625 0.734375 44.1875 -0.34375 
Q 39.109375 -1.421875 33.890625 -1.421875 
Q 20.796875 -1.421875 13.15625 6.1875 
Q 5.515625 13.8125 5.515625 26.8125 
Q 5.515625 40.234375 12.765625 48.109375 
Q 20.015625 56 32.328125 56 
Q 43.359375 56 49.78125 48.890625 
Q 56.203125 41.796875 56.203125 29.59375 
z
M 47.21875 32.234375 
Q 47.125 39.59375 43.09375 43.984375 
Q 39.0625 48.390625 32.421875 48.390625 
Q 24.90625 48.390625 20.390625 44.140625 
Q 15.875 39.890625 15.1875 32.171875 
z
" id="DejaVuSans-65"/>
      <path id="DejaVuSans-20"/>
      <path d="M 31 75.875 
Q 24.46875 64.65625 21.28125 53.65625 
Q 18.109375 42.671875 18.109375 31.390625 
Q 18.109375 20.125 21.3125 9.0625 
Q 24.515625 -2 31 -13.1875 
L 23.1875 -13.1875 
Q 15.875 -1.703125 12.234375 9.375 
Q 8.59375 20.453125 8.59375 31.390625 
Q 8.59375 42.28125 12.203125 53.3125 
Q 15.828125 64.359375 23.1875 75.875 
z
" id="DejaVuSans-28"/>
      <path d="M 44.28125 53.078125 
L 44.28125 44.578125 
Q 40.484375 46.53125 36.375 47.5 
Q 32.28125 48.484375 27.875 48.484375 
Q 21.1875 48.484375 17.84375 46.4375 
Q 14.5 44.390625 14.5 40.28125 
Q 14.5 37.15625 16.890625 35.375 
Q 19.28125 33.59375 26.515625 31.984375 
L 29.59375 31.296875 
Q 39.15625 29.25 43.1875 25.515625 
Q 47.21875 21.78125 47.21875 15.09375 
Q 47.21875 7.46875 41.1875 3.015625 
Q 35.15625 -1.421875 24.609375 -1.421875 
Q 20.21875 -1.421875 15.453125 -0.5625 
Q 10.6875 0.296875 5.421875 2 
L 5.421875 11.28125 
Q 10.40625 8.6875 15.234375 7.390625 
Q 20.0625 6.109375 24.8125 6.109375 
Q 31.15625 6.109375 34.5625 8.28125 
Q 37.984375 10.453125 37.984375 14.40625 
Q 37.984375 18.0625 35.515625 20.015625 
Q 33.0625 21.96875 24.703125 23.78125 
L 21.578125 24.515625 
Q 13.234375 26.265625 9.515625 29.90625 
Q 5.8125 33.546875 5.8125 39.890625 
Q 5.8125 47.609375 11.28125 51.796875 
Q 16.75 56 26.8125 56 
Q 31.78125 56 36.171875 55.265625 
Q 40.578125 54.546875 44.28125 53.078125 
z
" id="DejaVuSans-73"/>
      <path d="M 48.78125 52.59375 
L 48.78125 44.1875 
Q 44.96875 46.296875 41.140625 47.34375 
Q 37.3125 48.390625 33.40625 48.390625 
Q 24.65625 48.390625 19.8125 42.84375 
Q 14.984375 37.3125 14.984375 27.296875 
Q 14.984375 17.28125 19.8125 11.734375 
Q 24.65625 6.203125 33.40625 6.203125 
Q 37.3125 6.203125 41.140625 7.25 
Q 44.96875 8.296875 48.78125 10.40625 
L 48.78125 2.09375 
Q 45.015625 0.34375 40.984375 -0.53125 
Q 36.96875 -1.421875 32.421875 -1.421875 
Q 20.0625 -1.421875 12.78125 6.34375 
Q 5.515625 14.109375 5.515625 27.296875 
Q 5.515625 40.671875 12.859375 48.328125 
Q 20.21875 56 33.015625 56 
Q 37.15625 56 41.109375 55.140625 
Q 45.0625 54.296875 48.78125 52.59375 
z
" id="DejaVuSans-63"/>
      <path d="M 30.609375 48.390625 
Q 23.390625 48.390625 19.1875 42.75 
Q 14.984375 37.109375 14.984375 27.296875 
Q 14.984375 17.484375 19.15625 11.84375 
Q 23.34375 6.203125 30.609375 6.203125 
Q 37.796875 6.203125 41.984375 11.859375 
Q 46.1875 17.53125 46.1875 27.296875 
Q 46.1875 37.015625 41.984375 42.703125 
Q 37.796875 48.390625 30.609375 48.390625 
z
M 30.609375 56 
Q 42.328125 56 49.015625 48.375 
Q 55.71875 40.765625 55.71875 27.296875 
Q 55.71875 13.875 49.015625 6.21875 
Q 42.328125 -1.421875 30.609375 -1.421875 
Q 18.84375 -1.421875 12.171875 6.21875 
Q 5.515625 13.875 5.515625 27.296875 
Q 5.515625 40.765625 12.171875 48.375 
Q 18.84375 56 30.609375 56 
z
" id="DejaVuSans-6f"/>
      <path d="M 54.890625 33.015625 
L 54.890625 0 
L 45.90625 0 
L 45.90625 32.71875 
Q 45.90625 40.484375 42.875 44.328125 
Q 39.84375 48.1875 33.796875 48.1875 
Q 26.515625 48.1875 22.3125 43.546875 
Q 18.109375 38.921875 18.109375 30.90625 
L 18.109375 0 
L 9.078125 0 
L 9.078125 54.6875 
L 18.109375 54.6875 
L 18.109375 46.1875 
Q 21.34375 51.125 25.703125 53.5625 
Q 30.078125 56 35.796875 56 
Q 45.21875 56 50.046875 50.171875 
Q 54.890625 44.34375 54.890625 33.015625 
z
" id="DejaVuSans-6e"/>
      <path d="M 45.40625 46.390625 
L 45.40625 75.984375 
L 54.390625 75.984375 
L 54.390625 0 
L 45.40625 0 
L 45.40625 8.203125 
Q 42.578125 3.328125 38.25 0.953125 
Q 33.9375 -1.421875 27.875 -1.421875 
Q 17.96875 -1.421875 11.734375 6.484375 
Q 5.515625 14.40625 5.515625 27.296875 
Q 5.515625 40.1875 11.734375 48.09375 
Q 17.96875 56 27.875 56 
Q 33.9375 56 38.25 53.625 
Q 42.578125 51.265625 45.40625 46.390625 
z
M 14.796875 27.296875 
Q 14.796875 17.390625 18.875 11.75 
Q 22.953125 6.109375 30.078125 6.109375 
Q 37.203125 6.109375 41.296875 11.75 
Q 45.40625 17.390625 45.40625 27.296875 
Q 45.40625 37.203125 41.296875 42.84375 
Q 37.203125 48.484375 30.078125 48.484375 
Q 22.953125 48.484375 18.875 42.84375 
Q 14.796875 37.203125 14.796875 27.296875 
z
" id="DejaVuSans-64"/>
      <path d="M 8.015625 75.875 
L 15.828125 75.875 
Q 23.140625 64.359375 26.78125 53.3125 
Q 30.421875 42.28125 30.421875 31.390625 
Q 30.421875 20.453125 26.78125 9.375 
Q 23.140625 -1.703125 15.828125 -13.1875 
L 8.015625 -13.1875 
Q 14.5 -2 17.703125 9.0625 
Q 20.90625 20.125 20.90625 31.390625 
Q 20.90625 42.671875 17.703125 53.65625 
Q 14.5 64.65625 8.015625 75.875 
z
" id="DejaVuSans-29"/>
     </defs>
     <g transform="translate(404.484375 334.276563)scale(0.1 -0.1)">
      <use xlink:href="#DejaVuSans-54"/>
      <use x="61.037109" xlink:href="#DejaVuSans-69"/>
      <use x="88.820312" xlink:href="#DejaVuSans-6d"/>
      <use x="186.232422" xlink:href="#DejaVuSans-65"/>
      <use x="247.755859" xlink:href="#DejaVuSans-20"/>
      <use x="279.542969" xlink:href="#DejaVuSans-28"/>
      <use x="318.556641" xlink:href="#DejaVuSans-73"/>
      <use x="370.65625" xlink:href="#DejaVuSans-65"/>
      <use x="432.179688" xlink:href="#DejaVuSans-63"/>
      <use x="487.160156" xlink:href="#DejaVuSans-6f"/>
      <use x="548.341797" xlink:href="#DejaVuSans-6e"/>
      <use x="611.720703" xlink:href="#DejaVuSans-64"/>
      <use x="675.197266" xlink:href="#DejaVuSans-73"/>
      <use x="727.296875" xlink:href="#DejaVuSans-29"/>
     </g>
    </g>
   </g>
   <g id="matplotlib.axis_2">
    <g id="ytick_1">
     <g id="line2d_8">
      <defs>
       <path d="M 0 0 
L -3.5 0 
" id="m949c637f61" style="stroke:#000000;stroke-width:0.8;"/>
      </defs>
      <g>
       <use style="stroke:#000000;stroke-width:0.8;" x="108" xlink:href="#m949c637f61" y="295.355257"/>
      </g>
     </g>
     <g id="text_9">
      <!-- 0 -->
      <g transform="translate(94.6375 299.154475)scale(0.1 -0.1)">
       <use xlink:href="#DejaVuSans-30"/>
      </g>
     </g>
    </g>
    <g id="ytick_2">
     <g id="line2d_9">
      <g>
       <use style="stroke:#000000;stroke-width:0.8;" x="108" xlink:href="#m949c637f61" y="251.55666"/>
      </g>
     </g>
     <g id="text_10">
      <!-- 10 -->
      <g transform="translate(88.275 255.355878)scale(0.1 -0.1)">
       <use xlink:href="#DejaVuSans-31"/>
       <use x="63.623047" xlink:href="#DejaVuSans-30"/>
      </g>
     </g>
    </g>
    <g id="ytick_3">
     <g id="line2d_10">
      <g>
       <use style="stroke:#000000;stroke-width:0.8;" x="108" xlink:href="#m949c637f61" y="207.758063"/>
      </g>
     </g>
     <g id="text_11">
      <!-- 20 -->
      <g transform="translate(88.275 211.557281)scale(0.1 -0.1)">
       <use xlink:href="#DejaVuSans-32"/>
       <use x="63.623047" xlink:href="#DejaVuSans-30"/>
      </g>
     </g>
    </g>
    <g id="ytick_4">
     <g id="line2d_11">
      <g>
       <use style="stroke:#000000;stroke-width:0.8;" x="108" xlink:href="#m949c637f61" y="163.959466"/>
      </g>
     </g>
     <g id="text_12">
      <!-- 30 -->
      <g transform="translate(88.275 167.758685)scale(0.1 -0.1)">
       <use xlink:href="#DejaVuSans-33"/>
       <use x="63.623047" xlink:href="#DejaVuSans-30"/>
      </g>
     </g>
    </g>
    <g id="ytick_5">
     <g id="line2d_12">
      <g>
       <use style="stroke:#000000;stroke-width:0.8;" x="108" xlink:href="#m949c637f61" y="120.160869"/>
      </g>
     </g>
     <g id="text_13">
      <!-- 40 -->
      <defs>
       <path d="M 37.796875 64.3125 
L 12.890625 25.390625 
L 37.796875 25.390625 
z
M 35.203125 72.90625 
L 47.609375 72.90625 
L 47.609375 25.390625 
L 58.015625 25.390625 
L 58.015625 17.1875 
L 47.609375 17.1875 
L 47.609375 0 
L 37.796875 0 
L 37.796875 17.1875 
L 4.890625 17.1875 
L 4.890625 26.703125 
z
" id="DejaVuSans-34"/>
      </defs>
      <g transform="translate(88.275 123.960088)scale(0.1 -0.1)">
       <use xlink:href="#DejaVuSans-34"/>
       <use x="63.623047" xlink:href="#DejaVuSans-30"/>
      </g>
     </g>
    </g>
    <g id="ytick_6">
     <g id="line2d_13">
      <g>
       <use style="stroke:#000000;stroke-width:0.8;" x="108" xlink:href="#m949c637f61" y="76.362272"/>
      </g>
     </g>
     <g id="text_14">
      <!-- 50 -->
      <g transform="translate(88.275 80.161491)scale(0.1 -0.1)">
       <use xlink:href="#DejaVuSans-35"/>
       <use x="63.623047" xlink:href="#DejaVuSans-30"/>
      </g>
     </g>
    </g>
    <g id="text_15">
     <!-- Activity (Hz) -->
     <defs>
      <path d="M 34.1875 63.1875 
L 20.796875 26.90625 
L 47.609375 26.90625 
z
M 28.609375 72.90625 
L 39.796875 72.90625 
L 67.578125 0 
L 57.328125 0 
L 50.6875 18.703125 
L 17.828125 18.703125 
L 11.1875 0 
L 0.78125 0 
z
" id="DejaVuSans-41"/>
      <path d="M 18.3125 70.21875 
L 18.3125 54.6875 
L 36.8125 54.6875 
L 36.8125 47.703125 
L 18.3125 47.703125 
L 18.3125 18.015625 
Q 18.3125 11.328125 20.140625 9.421875 
Q 21.96875 7.515625 27.59375 7.515625 
L 36.8125 7.515625 
L 36.8125 0 
L 27.59375 0 
Q 17.1875 0 13.234375 3.875 
Q 9.28125 7.765625 9.28125 18.015625 
L 9.28125 47.703125 
L 2.6875 47.703125 
L 2.6875 54.6875 
L 9.28125 54.6875 
L 9.28125 70.21875 
z
" id="DejaVuSans-74"/>
      <path d="M 2.984375 54.6875 
L 12.5 54.6875 
L 29.59375 8.796875 
L 46.6875 54.6875 
L 56.203125 54.6875 
L 35.6875 0 
L 23.484375 0 
z
" id="DejaVuSans-76"/>
      <path d="M 32.171875 -5.078125 
Q 28.375 -14.84375 24.75 -17.8125 
Q 21.140625 -20.796875 15.09375 -20.796875 
L 7.90625 -20.796875 
L 7.90625 -13.28125 
L 13.1875 -13.28125 
Q 16.890625 -13.28125 18.9375 -11.515625 
Q 21 -9.765625 23.484375 -3.21875 
L 25.09375 0.875 
L 2.984375 54.6875 
L 12.5 54.6875 
L 29.59375 11.921875 
L 46.6875 54.6875 
L 56.203125 54.6875 
z
" id="DejaVuSans-79"/>
      <path d="M 9.8125 72.90625 
L 19.671875 72.90625 
L 19.671875 43.015625 
L 55.515625 43.015625 
L 55.515625 72.90625 
L 65.375 72.90625 
L 65.375 0 
L 55.515625 0 
L 55.515625 34.71875 
L 19.671875 34.71875 
L 19.671875 0 
L 9.8125 0 
z
" id="DejaVuSans-48"/>
      <path d="M 5.515625 54.6875 
L 48.1875 54.6875 
L 48.1875 46.484375 
L 14.40625 7.171875 
L 48.1875 7.171875 
L 48.1875 0 
L 4.296875 0 
L 4.296875 8.203125 
L 38.09375 47.515625 
L 5.515625 47.515625 
z
" id="DejaVuSans-7a"/>
     </defs>
     <g transform="translate(82.195312 205.260938)rotate(-90)scale(0.1 -0.1)">
      <use xlink:href="#DejaVuSans-41"/>
      <use x="68.392578" xlink:href="#DejaVuSans-63"/>
      <use x="123.373047" xlink:href="#DejaVuSans-74"/>
      <use x="162.582031" xlink:href="#DejaVuSans-69"/>
      <use x="190.365234" xlink:href="#DejaVuSans-76"/>
      <use x="249.544922" xlink:href="#DejaVuSans-69"/>
      <use x="277.328125" xlink:href="#DejaVuSans-74"/>
      <use x="316.537109" xlink:href="#DejaVuSans-79"/>
      <use x="375.716797" xlink:href="#DejaVuSans-20"/>
      <use x="407.503906" xlink:href="#DejaVuSans-28"/>
      <use x="446.517578" xlink:href="#DejaVuSans-48"/>
      <use x="521.712891" xlink:href="#DejaVuSans-7a"/>
      <use x="574.203125" xlink:href="#DejaVuSans-29"/>
     </g>
    </g>
   </g>
   <g id="line2d_14">
    <path clip-path="url(#pac1172296c)" d="M 108 294.023269 
L 108.446549 286.888686 
L 109.116372 268.993058 
L 112.01894 180.008832 
L 112.688763 167.635312 
L 113.135312 161.994337 
L 113.581861 158.524105 
L 113.805135 157.557291 
L 114.028409 157.140255 
L 114.251684 157.255838 
L 114.474958 157.796506 
L 114.921507 160.363511 
L 115.368056 164.60879 
L 116.037879 173.696426 
L 116.930977 189.658916 
L 118.493898 222.891718 
L 119.61027 245.903628 
L 120.280093 255.745202 
L 120.949917 262.917186 
L 121.61974 268.158633 
L 122.289563 271.944817 
L 122.959386 274.731706 
L 123.62921 276.786768 
L 124.522307 278.648575 
L 124.968856 279.26379 
L 125.192131 279.207494 
L 125.415405 278.857654 
L 125.861954 277.361591 
L 126.308503 274.965013 
L 126.978326 270.101754 
L 128.094698 259.541944 
L 130.773991 232.768983 
L 131.667089 226.313766 
L 132.336912 222.901128 
L 132.783461 221.341268 
L 133.23001 220.393159 
L 133.453284 220.144189 
L 133.899833 220.094688 
L 134.346382 220.652255 
L 134.792931 221.703196 
L 135.462754 224.247903 
L 136.355852 228.926933 
L 137.472224 236.248011 
L 139.928243 252.446327 
L 140.82134 256.858196 
L 141.491164 259.249831 
L 142.160987 260.819422 
L 142.607536 261.371378 
L 143.054085 261.501198 
L 143.500634 261.29679 
L 143.947182 260.713173 
L 144.393731 259.766583 
L 145.063555 257.828026 
L 145.956652 254.383193 
L 147.296299 248.277402 
L 148.85922 241.250197 
L 149.752317 237.993277 
L 150.422141 236.086159 
L 151.091964 234.80755 
L 151.538513 234.270922 
L 151.985062 233.975866 
L 152.654885 234.080132 
L 153.324708 234.731708 
L 153.994532 235.886603 
L 154.887629 237.998597 
L 156.004001 241.306728 
L 158.683294 249.10588 
L 159.576392 250.890957 
L 160.246215 251.827392 
L 160.916039 252.35386 
L 161.585862 252.458025 
L 162.255685 252.217448 
L 162.702234 251.853922 
L 163.595332 250.703059 
L 164.711704 248.652781 
L 166.274625 245.397716 
L 167.390997 243.197752 
L 168.507369 241.454852 
L 169.400467 240.511074 
L 170.293565 240.073931 
L 170.963388 240.060253 
L 171.633211 240.278656 
L 172.526309 240.952204 
L 173.419406 241.909437 
L 176.768523 246.443074 
L 178.108169 247.70175 
L 178.777993 248.098745 
L 179.67109 248.385205 
L 181.010737 248.157833 
L 181.68056 247.830742 
L 183.466756 246.418019 
L 184.583128 245.337497 
L 186.815872 243.499188 
L 188.155519 242.867488 
L 189.271891 242.740185 
L 190.611537 243.013212 
L 191.504635 243.403315 
L 193.737379 244.761991 
L 195.077026 245.572252 
L 197.086495 246.392374 
L 198.202868 246.544876 
L 199.542514 246.427586 
L 200.435612 246.215706 
L 205.347649 244.305285 
L 206.687296 244.02482 
L 208.026942 244.01204 
L 210.036412 244.273291 
L 212.93898 245.074469 
L 213.385529 245.211758 
L 216.734645 245.706859 
L 217.851017 245.658463 
L 225.665622 244.535561 
L 230.800934 244.945239 
L 231.917306 245.116292 
L 236.829343 245.268785 
L 239.062087 245.106261 
L 242.857753 244.826184 
L 246.653418 244.820697 
L 248.662888 244.943875 
L 250.002534 245.025303 
L 252.012004 245.107585 
L 253.351651 245.13311 
L 254.468023 245.153019 
L 255.137846 245.108723 
L 255.807669 245.120538 
L 265.185195 244.916492 
L 267.194665 244.993393 
L 268.311037 245.009525 
L 270.097232 245.045988 
L 271.436879 245.050437 
L 273.669623 245.067666 
L 274.339446 236.634815 
L 275.232544 228.436365 
L 276.572191 219.295535 
L 278.135112 208.904036 
L 279.698033 196.566419 
L 284.833344 153.930229 
L 286.61954 142.129315 
L 288.62901 130.67443 
L 291.085028 118.547877 
L 292.871224 110.98878 
L 294.434145 105.368193 
L 295.773791 101.287022 
L 297.559987 96.947045 
L 298.676359 94.710786 
L 300.685829 91.590241 
L 302.918573 88.975725 
L 304.704768 87.277478 
L 306.490964 85.790439 
L 314.082294 79.392764 
L 318.547783 75.658643 
L 320.110704 74.51475 
L 322.120173 73.272053 
L 323.683094 72.465479 
L 328.371857 70.926857 
L 331.944248 70.281872 
L 334.176992 69.937876 
L 334.846816 69.867351 
L 335.963188 69.68553 
L 336.856285 69.57126 
L 337.749383 69.407256 
L 338.642481 69.304958 
L 339.312304 69.153813 
L 340.651951 68.918044 
L 349.136379 66.922364 
L 351.815672 66.137262 
L 372.133645 59.243762 
L 383.52064 56.458956 
L 384.637012 56.26605 
L 386.423208 55.985139 
L 387.53958 55.844873 
L 389.102501 55.681276 
L 392.674892 55.411592 
L 393.567989 55.380346 
L 394.907636 55.339649 
L 396.024008 55.268796 
L 397.363655 55.271664 
L 400.266222 55.210063 
L 410.313571 55.185692 
L 412.76959 55.195324 
L 413.885962 55.17996 
L 418.128176 55.185315 
L 419.691097 55.196752 
L 420.807469 55.1624 
L 422.816939 55.178898 
L 423.710037 55.172023 
L 538.026542 55.195144 
L 538.696365 55.165454 
L 542.045482 55.190018 
L 542.93858 55.173447 
L 544.054952 55.17809 
L 545.394598 55.184 
L 546.51097 55.206086 
L 547.850617 55.205619 
L 665.962788 55.160461 
L 666.632611 63.620633 
L 667.525709 71.692179 
L 668.418806 77.659044 
L 669.311904 82.316549 
L 670.428276 87.103227 
L 671.991197 92.50089 
L 673.107569 95.73266 
L 674.67049 99.30024 
L 675.786862 101.271265 
L 676.903234 102.794444 
L 678.019607 103.861251 
L 678.912704 104.46412 
L 679.805802 104.857469 
L 680.6989 105.12384 
L 683.601467 105.223865 
L 684.717839 105.101752 
L 687.397132 105.200046 
L 688.736779 105.537286 
L 692.30917 107.66541 
L 696.104835 110.179891 
L 698.560854 110.956084 
L 700.793598 110.989387 
L 701.90997 110.859781 
L 703.472891 110.654845 
L 704.142714 110.576838 
L 706.152184 110.519173 
L 707.938379 110.716353 
L 709.278026 111.022182 
L 711.064221 111.599515 
L 715.52971 112.834179 
L 720.218473 112.954829 
L 724.014138 112.817424 
L 730.265822 113.662774 
L 731.15892 113.839175 
L 736.964055 114.301125 
L 742.992464 114.261077 
L 743.662287 114.316042 
L 744.332111 114.324422 
L 745.225208 114.407188 
L 746.118306 114.450589 
L 748.574325 114.665978 
L 749.690697 114.741885 
L 751.923441 114.834711 
L 753.486362 114.871554 
L 762.417339 114.758748 
L 763.087162 114.787039 
L 765.766455 114.837881 
L 766.436279 114.886097 
L 767.329376 114.902924 
L 768.445749 114.93352 
L 774.474158 114.93482 
L 775.59053 114.914359 
L 777.6 114.894032 
L 777.6 114.894032 
" style="fill:none;stroke:#ff0000;stroke-linecap:square;stroke-width:1.5;"/>
   </g>
   <g id="line2d_15">
    <path clip-path="url(#pac1172296c)" d="M 108 294.054545 
L 108.446549 286.871825 
L 109.116372 268.988559 
L 112.01894 180.029644 
L 112.688763 167.616283 
L 113.135312 161.949167 
L 113.581861 158.458301 
L 113.805135 157.454567 
L 114.028409 157.002952 
L 114.251684 157.059334 
L 114.474958 157.605575 
L 114.921507 160.052691 
L 115.368056 164.116035 
L 116.037879 172.83636 
L 116.930977 188.112752 
L 118.493898 219.820831 
L 119.833545 246.488077 
L 120.503368 256.198759 
L 121.173191 263.223089 
L 121.843014 268.375823 
L 122.512838 272.119673 
L 123.182661 274.843396 
L 123.852484 276.866909 
L 124.522307 278.309213 
L 124.745582 278.588104 
L 124.968856 278.560922 
L 125.192131 278.265825 
L 125.63868 276.956668 
L 126.085228 274.802992 
L 126.755052 270.212819 
L 127.871424 260.08014 
L 130.997266 229.570819 
L 131.667089 225.005465 
L 132.336912 221.633937 
L 132.783461 220.10896 
L 133.23001 219.207619 
L 133.676559 218.866682 
L 133.899833 218.926083 
L 134.346382 219.496642 
L 134.792931 220.558052 
L 135.23948 222.088935 
L 136.132578 226.367984 
L 137.24895 233.316917 
L 140.151517 251.881506 
L 141.044615 255.909277 
L 141.714438 257.997894 
L 142.160987 258.929335 
L 142.607536 259.469391 
L 142.83081 259.617946 
L 143.277359 259.580036 
L 143.723908 259.198346 
L 144.393731 257.972827 
L 145.063555 256.04387 
L 145.956652 252.711826 
L 149.752317 236.630052 
L 150.645415 234.328157 
L 151.315238 233.250941 
L 151.985062 232.759103 
L 152.431611 232.779979 
L 152.878159 233.041388 
L 153.547983 233.843322 
L 154.217806 235.141857 
L 155.110904 237.365611 
L 159.129843 248.657095 
L 160.022941 250.125274 
L 160.692764 250.771585 
L 161.139313 250.996673 
L 161.585862 251.07221 
L 162.255685 250.808987 
L 162.925509 250.19962 
L 163.595332 249.330352 
L 164.711704 247.33438 
L 168.06082 240.884328 
L 169.177192 239.579844 
L 169.847016 239.1194 
L 170.516839 238.889071 
L 171.186662 238.958389 
L 172.07976 239.451979 
L 172.749583 240.033581 
L 174.08923 241.619985 
L 175.428876 243.507104 
L 176.991797 245.495253 
L 178.554718 246.781867 
L 179.224542 247.04574 
L 180.117639 247.174103 
L 181.234011 246.832856 
L 182.127109 246.325542 
L 183.020207 245.617732 
L 185.922774 243.001499 
L 187.485695 242.045822 
L 188.378793 241.73507 
L 189.271891 241.643976 
L 190.611537 241.899259 
L 194.183928 243.913298 
L 195.3003 244.536749 
L 196.639947 245.098903 
L 197.30977 245.277293 
L 198.649416 245.384832 
L 200.882161 244.9223 
L 202.445082 244.300596 
L 204.008003 243.654211 
L 206.240747 243.001633 
L 208.92004 242.992524 
L 210.259687 243.241401 
L 214.948449 244.452327 
L 218.297566 244.523422 
L 220.307036 244.201486 
L 225.442347 243.440393 
L 228.791464 243.612513 
L 231.024208 243.89692 
L 233.480227 244.146711 
L 235.043148 244.217452 
L 236.15952 244.186684 
L 238.16899 244.101331 
L 244.867222 243.705774 
L 253.128376 244.038889 
L 256.477492 243.988701 
L 262.059353 243.806216 
L 262.952451 243.823184 
L 263.622274 243.814681 
L 264.961921 243.830933 
L 266.97139 243.895475 
L 269.873958 243.924761 
L 270.99033 243.963102 
L 272.329977 243.956324 
L 273.669623 243.943469 
L 274.339446 235.6988 
L 275.00927 229.516431 
L 275.902367 223.305996 
L 276.795465 218.699026 
L 277.688563 215.301981 
L 278.358386 213.428265 
L 279.028209 212.028089 
L 279.698033 211.090166 
L 280.367856 210.571078 
L 281.037679 210.352269 
L 281.484228 210.395011 
L 282.154051 210.672242 
L 282.6006 210.984166 
L 283.270423 211.584939 
L 284.386796 212.906454 
L 286.172991 215.501693 
L 289.522107 220.052762 
L 290.861754 221.473032 
L 295.773791 226.512349 
L 298.006536 229.658371 
L 301.802201 236.007662 
L 304.258219 240.154406 
L 307.607336 245.030962 
L 310.956452 248.628082 
L 313.85902 250.699279 
L 314.752117 251.10565 
L 316.984862 251.58845 
L 319.887429 251.755363 
L 329.041681 251.834649 
L 330.158053 251.821421 
L 332.614071 251.839644 
L 333.283895 251.8129 
L 334.400267 251.809115 
L 337.302834 251.838738 
L 337.972658 251.837305 
L 392.228343 251.81708 
L 393.12144 251.841666 
L 394.461087 251.825177 
L 400.936045 251.820462 
L 402.275692 251.836566 
L 404.285162 251.80876 
L 405.178259 251.834994 
L 409.643748 251.813808 
L 410.76012 251.825511 
L 413.662688 251.842311 
L 414.77906 251.820064 
L 443.58146 251.839902 
L 446.930577 251.840378 
L 448.270223 251.820796 
L 449.386596 251.811499 
L 458.987396 251.817024 
L 460.773591 251.820701 
L 462.783061 251.819319 
L 463.899433 251.832008 
L 464.569256 251.843784 
L 472.160587 251.829664 
L 474.83988 251.824115 
L 481.761387 251.804105 
L 482.43121 251.832296 
L 483.994131 251.824697 
L 489.129443 251.841 
L 489.799266 251.841065 
L 494.264755 251.83804 
L 495.157853 251.805624 
L 496.274225 251.809678 
L 498.730243 251.819928 
L 499.623341 251.82037 
L 505.875025 251.824972 
L 509.000867 251.826845 
L 517.70857 251.811251 
L 518.601667 251.839134 
L 526.416272 251.833401 
L 527.755919 251.812842 
L 530.435212 251.823268 
L 535.347249 251.843282 
L 536.017072 251.808575 
L 536.91017 251.840635 
L 537.579993 251.841103 
L 550.52991 251.809863 
L 551.423008 251.821586 
L 552.985929 251.81404 
L 557.451417 251.818506 
L 559.237613 251.805366 
L 560.577259 251.820201 
L 562.14018 251.818731 
L 563.926375 251.838378 
L 565.489296 251.809881 
L 566.605669 251.837404 
L 567.945315 251.812542 
L 569.508236 251.823466 
L 618.405335 251.834687 
L 619.075158 251.839286 
L 621.307903 251.814702 
L 621.977726 251.833377 
L 623.317372 251.817923 
L 624.880293 251.836389 
L 625.550117 251.827614 
L 633.81127 251.840106 
L 634.704368 251.818249 
L 638.276759 251.821285 
L 640.732778 251.828807 
L 641.625875 251.809679 
L 642.295699 251.818109 
L 665.962788 251.833485 
L 666.632611 260.058281 
L 667.302434 266.060991 
L 667.972257 270.433116 
L 668.642081 273.648928 
L 669.535178 276.56444 
L 670.205002 278.125594 
L 670.874825 279.228327 
L 671.767923 280.251442 
L 672.437746 280.795392 
L 673.330844 281.294233 
L 676.67996 282.021439 
L 678.019607 282.100062 
L 680.475625 282.164666 
L 681.368723 281.914656 
L 682.261821 281.358023 
L 686.504035 278.056654 
L 687.843681 277.458113 
L 688.736779 277.232718 
L 690.522974 277.320217 
L 692.532444 277.963383 
L 693.648816 278.411398 
L 695.211737 279.010987 
L 696.997933 279.369655 
L 698.560854 279.359503 
L 701.240147 278.676234 
L 705.259086 277.355663 
L 707.491831 277.107203 
L 709.947849 277.364865 
L 711.734045 277.730747 
L 715.752984 278.287804 
L 718.432277 278.118837 
L 720.441747 277.792438 
L 721.334845 277.64722 
L 723.790864 277.270202 
L 727.13998 277.266456 
L 730.042548 277.48629 
L 730.712371 277.59233 
L 736.294231 277.693319 
L 738.75025 277.481031 
L 739.643348 277.372633 
L 740.982994 277.293416 
L 744.332111 277.166515 
L 745.225208 277.158906 
L 749.913971 277.35468 
L 750.583795 277.388791 
L 753.932911 277.409035 
L 757.058753 277.291858 
L 759.738046 277.173523 
L 768.669023 277.273131 
L 769.562121 277.306774 
L 771.348316 277.28992 
L 772.687963 277.30194 
L 777.6 277.196722 
L 777.6 277.196722 
" style="fill:none;stroke:#0000ff;stroke-linecap:square;stroke-width:1.5;"/>
   </g>
   <g id="line2d_16">
    <path clip-path="url(#pac1172296c)" d="M 108 294.048516 
L 108.446549 286.864255 
L 109.116372 269.006117 
L 112.01894 180.024235 
L 112.688763 167.628618 
L 113.135312 162.024052 
L 113.581861 158.520765 
L 113.805135 157.611722 
L 114.028409 157.186483 
L 114.251684 157.282203 
L 114.474958 157.863416 
L 114.921507 160.443421 
L 115.368056 164.736481 
L 116.037879 173.920353 
L 116.930977 190.063467 
L 118.493898 223.698748 
L 119.61027 246.732558 
L 120.280093 256.375783 
L 120.949917 263.37281 
L 121.61974 268.473733 
L 122.289563 272.218203 
L 123.182661 275.639651 
L 123.852484 277.438835 
L 124.745582 279.073886 
L 124.968856 279.380541 
L 125.192131 279.401921 
L 125.415405 279.070473 
L 125.861954 277.661649 
L 126.308503 275.377596 
L 126.978326 270.509089 
L 128.094698 259.996833 
L 130.773991 233.151917 
L 131.667089 226.642672 
L 132.336912 223.19209 
L 132.783461 221.632535 
L 133.23001 220.707953 
L 133.453284 220.451154 
L 133.899833 220.398123 
L 134.346382 220.94287 
L 134.792931 222.011992 
L 135.462754 224.530935 
L 136.132578 227.975734 
L 137.025675 233.529993 
L 140.151517 254.12354 
L 141.044615 258.20002 
L 141.714438 260.372219 
L 142.160987 261.308767 
L 142.607536 261.833954 
L 143.054085 261.986187 
L 143.500634 261.78689 
L 144.170457 260.758778 
L 144.84028 258.975846 
L 145.733378 255.772094 
L 147.296299 248.670619 
L 148.635945 242.514828 
L 149.752317 238.327575 
L 150.422141 236.423633 
L 151.091964 235.105403 
L 151.761787 234.417134 
L 152.208336 234.259134 
L 152.654885 234.380257 
L 153.101434 234.782366 
L 153.771257 235.756241 
L 154.44108 237.15511 
L 155.780727 240.906688 
L 158.46002 248.943275 
L 159.576392 251.26682 
L 160.246215 252.183035 
L 160.692764 252.584126 
L 161.362588 252.873146 
L 161.809136 252.82307 
L 162.702234 252.210927 
L 163.595332 251.061798 
L 164.488429 249.453233 
L 165.828076 246.655539 
L 167.614271 243.133207 
L 168.507369 241.785327 
L 168.953918 241.2366 
L 169.847016 240.554958 
L 170.740113 240.32137 
L 171.409937 240.481199 
L 172.07976 240.849427 
L 172.749583 241.472203 
L 173.642681 242.503282 
L 176.768523 246.76365 
L 178.331444 248.200199 
L 179.224542 248.601175 
L 180.117639 248.71967 
L 181.234011 248.40831 
L 183.020207 247.144335 
L 186.592598 243.937476 
L 188.155519 243.194887 
L 189.495165 243.068078 
L 190.164988 243.180111 
L 190.834812 243.387071 
L 192.621007 244.358667 
L 195.077026 245.882628 
L 195.970123 246.324627 
L 197.533044 246.802404 
L 199.31924 246.790308 
L 203.784728 245.140956 
L 204.9011 244.741262 
L 205.794198 244.486865 
L 206.687296 244.336291 
L 209.143314 244.404749 
L 215.841547 245.977931 
L 217.404468 246.009537 
L 218.967389 245.867032 
L 224.995799 244.883183 
L 225.888896 244.847597 
L 230.577659 245.230214 
L 232.14058 245.452201 
L 233.033678 245.501939 
L 233.703501 245.593297 
L 234.373324 245.593923 
L 236.382794 245.62778 
L 240.178459 245.357384 
L 244.867222 245.08961 
L 256.030944 245.440864 
L 256.700767 245.409241 
L 263.622274 245.204454 
L 264.515372 245.242985 
L 265.855018 245.263015 
L 268.087763 245.318804 
L 272.329977 245.392358 
L 273.446349 245.393911 
L 276.348916 245.445151 
L 277.465288 246.00359 
L 278.135112 246.664636 
L 279.028209 248.039962 
L 279.921307 250.029805 
L 281.037679 253.350859 
L 281.930777 256.543834 
L 283.940247 265.111108 
L 286.172991 275.002031 
L 286.842814 276.966014 
L 287.512638 278.392918 
L 288.182461 279.413556 
L 289.075559 280.400405 
L 290.191931 281.151031 
L 291.308303 281.58779 
L 292.424675 281.852284 
L 298.006536 282.176465 
L 303.365122 282.210803 
L 304.704768 282.225512 
L 306.044415 282.208189 
L 308.723708 282.21934 
L 310.733178 282.218646 
L 313.189196 282.223347 
L 314.082294 282.217489 
L 315.868489 282.227348 
L 320.110704 282.210065 
L 321.45035 282.224051 
L 324.352918 282.203832 
L 325.692564 282.230163 
L 341.098499 282.217488 
L 342.66142 282.202502 
L 345.787262 282.207954 
L 347.126909 282.219915 
L 348.68983 282.218664 
L 354.271691 282.20516 
L 355.611337 282.223943 
L 356.727709 282.209743 
L 358.067356 282.217325 
L 362.979393 282.229656 
L 363.872491 282.206995 
L 365.658686 282.223575 
L 366.551784 282.197207 
L 367.89143 282.224631 
L 377.045682 282.215568 
L 378.385328 282.22071 
L 383.967189 282.223164 
L 384.860287 282.20519 
L 385.53011 282.20282 
L 392.898166 282.224089 
L 395.577459 282.202936 
L 396.693831 282.225514 
L 398.256752 282.202292 
L 399.596399 282.236625 
L 401.829143 282.210835 
L 408.304101 282.211588 
L 409.643748 282.227591 
L 519.718039 282.19542 
L 520.164588 282.22347 
L 521.057686 282.205648 
L 522.174058 282.227013 
L 522.843881 282.217478 
L 524.853351 282.233657 
L 525.523174 282.228031 
L 528.872291 282.220187 
L 530.211937 282.218282 
L 532.667956 282.208415 
L 539.366189 282.226886 
L 541.375659 282.214357 
L 542.492031 282.214543 
L 543.831677 282.224744 
L 549.636812 282.215692 
L 552.53938 282.209269 
L 555.218673 282.225108 
L 565.042748 282.207744 
L 566.382394 282.214422 
L 567.945315 282.22912 
L 570.401334 282.216432 
L 571.517706 282.220587 
L 573.080627 282.214284 
L 578.215939 282.216381 
L 579.77886 282.22754 
L 584.467623 282.223093 
L 585.583995 282.205315 
L 586.253818 282.221153 
L 587.37019 282.206771 
L 614.832944 282.213585 
L 615.949316 282.223224 
L 617.958786 282.234455 
L 618.851884 282.202413 
L 619.968256 282.234312 
L 620.414805 282.203023 
L 621.307903 282.212008 
L 623.540647 282.209137 
L 625.773391 282.229106 
L 626.443214 282.210928 
L 627.559587 282.222715 
L 628.452684 282.19629 
L 629.792331 282.196843 
L 681.368723 282.112694 
L 682.261821 281.604984 
L 682.708369 281.303382 
L 684.494565 279.800598 
L 686.057486 278.610348 
L 687.397132 277.838226 
L 688.513505 277.50346 
L 689.406602 277.399328 
L 691.416072 277.744915 
L 695.211737 279.17878 
L 696.774658 279.504758 
L 698.114305 279.515652 
L 699.230677 279.394815 
L 704.589263 277.635361 
L 707.491831 277.21455 
L 708.608203 277.317146 
L 709.278026 277.386436 
L 710.171124 277.544866 
L 713.296966 278.17964 
L 714.413338 278.311723 
L 714.859887 278.371243 
L 718.209003 278.268574 
L 724.907236 277.342919 
L 726.246882 277.313995 
L 730.935645 277.697595 
L 731.605468 277.794209 
L 732.275292 277.810081 
L 732.945115 277.862612 
L 737.187329 277.751726 
L 741.429543 277.36247 
L 742.322641 277.335476 
L 743.215739 277.285823 
L 744.332111 277.311917 
L 745.225208 277.289164 
L 746.788129 277.373164 
L 747.457953 277.382956 
L 748.574325 277.462743 
L 751.030343 277.530692 
L 753.039813 277.515909 
L 757.505302 277.377258 
L 762.640614 277.262457 
L 766.213004 277.363322 
L 766.882828 277.360173 
L 767.775925 277.382383 
L 769.115572 277.427389 
L 772.911237 277.407307 
L 777.6 277.328483 
L 777.6 277.328483 
" style="fill:none;stroke:#008000;stroke-linecap:square;stroke-width:1.5;"/>
   </g>
   <g id="line2d_17">
    <path clip-path="url(#pac1172296c)" d="M 108 294.029551 
L 108.446549 286.865715 
L 109.116372 269.004063 
L 112.01894 180.001004 
L 112.688763 167.60952 
L 113.135312 161.978086 
L 113.581861 158.47029 
L 113.805135 157.473639 
L 114.028409 157.052528 
L 114.251684 157.132114 
L 114.474958 157.647545 
L 114.921507 160.133334 
L 115.368056 164.23476 
L 116.037879 173.080064 
L 116.930977 188.562385 
L 118.493898 220.719714 
L 119.833545 247.443284 
L 120.503368 256.862248 
L 121.173191 263.730603 
L 121.843014 268.736365 
L 122.512838 272.410349 
L 123.405935 275.786001 
L 124.299033 277.971938 
L 124.745582 278.771551 
L 124.968856 278.836544 
L 125.192131 278.614499 
L 125.63868 277.394302 
L 126.085228 275.276404 
L 126.755052 270.727644 
L 127.648149 262.815244 
L 129.434345 244.385235 
L 130.550717 233.654559 
L 131.443815 226.822569 
L 132.113638 223.005797 
L 132.783461 220.474968 
L 133.23001 219.574503 
L 133.676559 219.26071 
L 133.899833 219.309315 
L 134.123108 219.491747 
L 134.569657 220.316557 
L 135.23948 222.4675 
L 135.909303 225.587364 
L 136.802401 230.809052 
L 140.374792 253.570904 
L 141.267889 257.248233 
L 141.937713 259.097081 
L 142.384261 259.851657 
L 142.83081 260.180821 
L 143.277359 260.170144 
L 143.723908 259.771237 
L 144.393731 258.520402 
L 145.063555 256.598538 
L 145.956652 253.225321 
L 147.519573 246.134582 
L 149.082494 239.41267 
L 149.975592 236.38407 
L 150.645415 234.742682 
L 151.315238 233.640391 
L 151.985062 233.154145 
L 152.431611 233.161004 
L 152.878159 233.420206 
L 153.547983 234.259014 
L 154.44108 236.021742 
L 155.334178 238.411148 
L 158.906569 248.669906 
L 159.799667 250.269107 
L 160.246215 250.83796 
L 160.916039 251.395563 
L 161.585862 251.489755 
L 162.032411 251.386091 
L 162.47896 251.087765 
L 163.148783 250.376462 
L 164.041881 249.016371 
L 165.158253 246.88607 
L 167.390997 242.37979 
L 168.284095 240.958376 
L 168.953918 240.17141 
L 169.623741 239.600914 
L 170.07029 239.378116 
L 170.740113 239.254076 
L 171.633211 239.516825 
L 172.749583 240.394225 
L 173.865955 241.726794 
L 177.438346 246.31505 
L 178.554718 247.196874 
L 179.67109 247.545214 
L 180.340914 247.517824 
L 180.787462 247.415082 
L 181.68056 247.021942 
L 183.913304 245.185406 
L 185.476225 243.756656 
L 186.369323 243.043007 
L 187.262421 242.487648 
L 188.155519 242.123413 
L 189.495165 242.025612 
L 190.388263 242.179866 
L 192.174458 243.01822 
L 194.183928 244.265141 
L 195.3003 244.894171 
L 196.639947 245.464273 
L 197.979593 245.746621 
L 199.31924 245.685923 
L 202.221807 244.726977 
L 205.347649 243.53945 
L 208.026942 243.235349 
L 212.045882 244.069093 
L 213.832077 244.57674 
L 216.288096 244.922029 
L 219.637212 244.694294 
L 222.093231 244.195024 
L 222.763054 244.099836 
L 226.781994 243.802775 
L 228.791464 243.958914 
L 231.694031 244.310905 
L 232.587129 244.441609 
L 234.596599 244.548369 
L 236.382794 244.544485 
L 238.615539 244.398371 
L 240.401734 244.254533 
L 241.964655 244.149225 
L 246.206869 244.061187 
L 247.099967 244.118917 
L 247.993064 244.146501 
L 252.235278 244.386788 
L 253.798199 244.392134 
L 254.468023 244.390023 
L 257.37059 244.309235 
L 258.486962 244.293272 
L 259.826609 244.222441 
L 261.166255 244.192836 
L 263.175725 244.151335 
L 266.97139 244.238937 
L 274.339446 244.3129 
L 275.679093 244.320298 
L 276.348916 244.41565 
L 277.242014 244.770288 
L 277.688563 245.144009 
L 278.358386 245.879358 
L 279.251484 247.430243 
L 280.144582 249.544044 
L 281.037679 252.29096 
L 282.154051 256.370226 
L 283.716972 263.079138 
L 286.396265 275.068752 
L 287.289363 277.538045 
L 288.182461 279.118425 
L 289.075559 280.183853 
L 289.745382 280.756805 
L 291.754852 281.654328 
L 292.871224 281.897601 
L 296.22034 282.164394 
L 297.113438 282.165269 
L 298.676359 282.174931 
L 299.122908 282.18911 
L 303.365122 282.213094 
L 304.704768 282.21529 
L 336.409737 282.233374 
L 337.302834 282.214986 
L 339.08903 282.235309 
L 339.982127 282.227185 
L 342.214872 282.22843 
L 343.107969 282.196578 
L 348.466556 282.208629 
L 356.727709 282.207307 
L 357.844081 282.234503 
L 359.183728 282.215185 
L 361.193198 282.235787 
L 361.639747 282.225784 
L 363.425942 282.204382 
L 456.084828 282.200959 
L 459.657219 282.211827 
L 460.550317 282.217939 
L 468.364922 282.195057 
L 469.258019 282.2321 
L 471.714038 282.209993 
L 473.276959 282.21776 
L 474.83988 282.229069 
L 477.295899 282.22402 
L 479.528643 282.197033 
L 532.89123 282.210118 
L 533.784328 282.204134 
L 535.347249 282.221453 
L 536.686896 282.205144 
L 537.356719 282.202647 
L 540.482561 282.234837 
L 541.598933 282.208377 
L 543.831677 282.223637 
L 546.957519 282.23239 
L 547.850617 282.232459 
L 549.413538 282.208796 
L 551.423008 282.228807 
L 552.53938 282.204144 
L 554.54885 282.228593 
L 559.460887 282.225202 
L 560.353985 282.209172 
L 561.693631 282.219553 
L 563.703101 282.228346 
L 570.401334 282.206901 
L 572.634078 282.196577 
L 574.196999 282.236193 
L 575.313371 282.203213 
L 577.546115 282.226772 
L 614.60967 282.232807 
L 615.279493 282.216025 
L 619.744982 282.231889 
L 620.414805 282.195057 
L 621.307903 282.231121 
L 621.977726 282.236619 
L 623.317372 282.218012 
L 625.103568 282.198071 
L 626.666489 282.229678 
L 628.452684 282.207618 
L 632.248349 282.212956 
L 635.597466 282.207951 
L 638.276759 282.23214 
L 639.393131 282.198103 
L 640.509503 282.20253 
L 651.003401 282.216118 
L 653.682694 282.205788 
L 654.575792 282.235784 
L 655.692164 282.205377 
L 660.380927 282.231234 
L 663.730043 282.214045 
L 664.623141 282.235473 
L 676.67996 282.234611 
L 677.573058 282.21375 
L 678.68943 282.219114 
L 681.368723 282.088903 
L 682.261821 281.623318 
L 686.727309 278.149841 
L 688.066956 277.595825 
L 688.736779 277.441181 
L 689.406602 277.357315 
L 690.969523 277.573603 
L 692.30917 277.999004 
L 696.551384 279.409351 
L 698.560854 279.417446 
L 699.9005 279.156664 
L 703.91944 277.756043 
L 705.705635 277.312153 
L 707.715105 277.146894 
L 711.064221 277.62419 
L 712.180594 277.892159 
L 716.199533 278.334325 
L 717.762454 278.258874 
L 720.218473 277.884886 
L 721.334845 277.66569 
L 723.12104 277.404632 
L 723.790864 277.317946 
L 724.460687 277.266233 
L 726.693431 277.262028 
L 728.702901 277.391599 
L 730.042548 277.542901 
L 731.15892 277.635426 
L 732.945115 277.754958 
L 735.847683 277.742851 
L 743.439013 277.191234 
L 744.77866 277.209994 
L 748.797599 277.377903 
L 749.467422 277.40653 
L 750.583795 277.425626 
L 752.593264 277.455481 
L 753.263088 277.432867 
L 754.156185 277.434876 
L 757.282027 277.284445 
L 758.175125 277.278497 
L 759.514772 277.205648 
L 760.407869 277.21961 
L 762.863888 277.188815 
L 765.319907 277.253612 
L 766.213004 277.239987 
L 768.669023 277.310741 
L 769.785395 277.315756 
L 770.901767 277.321187 
L 775.367256 277.253919 
L 776.260353 277.238746 
L 777.6 277.203123 
L 777.6 277.203123 
" style="fill:none;stroke:#bfbf00;stroke-linecap:square;stroke-width:1.5;"/>
   </g>
   <g id="line2d_18">
    <path clip-path="url(#pac1172296c)" d="M 108 294.026399 
L 108.446549 286.871993 
L 109.116372 269.003487 
L 112.01894 180.045074 
L 112.688763 167.638511 
L 113.135312 162.031226 
L 113.581861 158.530859 
L 113.805135 157.627392 
L 114.028409 157.233852 
L 114.251684 157.311269 
L 114.474958 157.938755 
L 114.921507 160.585539 
L 115.368056 164.932768 
L 116.037879 174.254287 
L 116.930977 190.674734 
L 118.493898 224.824472 
L 119.61027 247.680484 
L 120.280093 257.009166 
L 120.949917 263.837465 
L 121.61974 268.831153 
L 122.289563 272.450807 
L 122.959386 275.085065 
L 123.62921 277.008069 
L 124.299033 278.440659 
L 124.745582 279.131513 
L 124.968856 279.23936 
L 125.192131 279.011551 
L 125.415405 278.541606 
L 125.861954 276.743898 
L 126.531777 272.560635 
L 127.424875 264.814071 
L 128.987796 248.509981 
L 130.327442 235.038873 
L 131.22054 227.800235 
L 131.890363 223.65942 
L 132.560187 220.894254 
L 133.006736 219.79666 
L 133.453284 219.31918 
L 133.676559 219.307958 
L 134.123108 219.703294 
L 134.569657 220.689479 
L 135.016205 222.195223 
L 135.686029 225.270145 
L 136.802401 232.071338 
L 139.928243 253.247742 
L 140.82134 257.517339 
L 141.491164 259.761555 
L 141.937713 260.807999 
L 142.384261 261.380508 
L 142.83081 261.563848 
L 143.277359 261.395643 
L 143.723908 260.771318 
L 144.170457 259.836149 
L 144.84028 257.832004 
L 145.733378 254.276479 
L 147.073024 247.899741 
L 148.635945 240.568742 
L 149.529043 237.177715 
L 150.198866 235.206591 
L 150.86869 233.839204 
L 151.315238 233.299058 
L 151.761787 233.01936 
L 152.208336 233.046541 
L 152.654885 233.350814 
L 153.101434 233.86617 
L 153.771257 235.12662 
L 154.664355 237.390731 
L 156.004001 241.644526 
L 157.790197 247.384175 
L 158.683294 249.725699 
L 159.576392 251.417905 
L 160.246215 252.197229 
L 160.916039 252.590592 
L 161.585862 252.508646 
L 162.255685 252.068055 
L 162.925509 251.226238 
L 163.595332 250.139482 
L 164.711704 247.818549 
L 166.721174 243.32553 
L 167.614271 241.61743 
L 168.730644 240.094222 
L 169.400467 239.543771 
L 170.07029 239.284709 
L 170.516839 239.302182 
L 171.186662 239.515456 
L 171.633211 239.804163 
L 172.972858 241.261996 
L 174.08923 242.920798 
L 176.545248 246.512001 
L 177.438346 247.47263 
L 178.554718 248.207071 
L 179.224542 248.400259 
L 180.340914 248.251345 
L 181.457286 247.616419 
L 183.020207 246.194049 
L 185.476225 243.664537 
L 186.592598 242.816864 
L 187.485695 242.372529 
L 189.048616 242.204108 
L 189.718439 242.347639 
L 191.504635 243.235191 
L 193.737379 244.83908 
L 196.193398 246.181832 
L 197.086495 246.390622 
L 198.649416 246.356026 
L 199.765789 246.065452 
L 201.105435 245.51233 
L 203.114905 244.507837 
L 203.784728 244.236994 
L 204.9011 243.829605 
L 205.794198 243.648726 
L 206.687296 243.528583 
L 208.696766 243.750835 
L 210.706235 244.30243 
L 211.822608 244.690575 
L 215.171724 245.497167 
L 218.52084 245.285021 
L 221.200133 244.705192 
L 222.53978 244.412219 
L 226.112171 244.183418 
L 227.228543 244.299961 
L 228.568189 244.442639 
L 231.247482 244.860765 
L 233.033678 245.067739 
L 237.052618 244.973745 
L 238.838813 244.78807 
L 240.178459 244.631426 
L 243.75085 244.449081 
L 244.867222 244.504945 
L 246.206869 244.542024 
L 247.546516 244.650479 
L 250.449083 244.846974 
L 251.78873 244.909482 
L 264.738646 244.648974 
L 265.408469 244.671759 
L 266.748116 244.709852 
L 269.650684 244.804738 
L 271.213605 244.815152 
L 273.669623 244.784821 
L 274.339446 236.272823 
L 275.232544 228.116112 
L 276.125642 222.226757 
L 277.01874 217.870183 
L 277.911837 214.648816 
L 278.804935 212.501346 
L 279.474758 211.42932 
L 279.921307 210.958411 
L 280.59113 210.539362 
L 281.484228 210.447238 
L 282.154051 210.618492 
L 283.493698 211.16447 
L 284.386796 211.473916 
L 285.279893 211.547671 
L 285.949717 211.389364 
L 286.396265 211.199675 
L 287.289363 210.497028 
L 288.182461 209.400607 
L 289.298833 207.521062 
L 290.638479 204.71972 
L 294.434145 196.360723 
L 295.550517 194.523471 
L 296.666889 193.149816 
L 297.783261 192.289161 
L 298.676359 191.877949 
L 300.016005 191.694069 
L 302.918573 192.044798 
L 303.588396 192.110241 
L 305.597866 191.93892 
L 308.277159 190.755692 
L 309.616806 189.948352 
L 310.509903 189.387326 
L 314.082294 187.82052 
L 314.975392 187.696906 
L 315.868489 187.64251 
L 316.761587 187.678549 
L 318.771057 188.221411 
L 319.664155 188.558966 
L 322.789997 190.374977 
L 327.032211 193.822885 
L 332.167523 198.940524 
L 335.516639 202.773939 
L 343.777793 213.694107 
L 348.243281 220.326454 
L 350.476025 223.744381 
L 352.262221 226.56094 
L 353.601867 228.663648 
L 360.746649 239.581669 
L 363.425942 243.368802 
L 366.105235 246.878359 
L 368.114705 249.189737 
L 369.454351 250.025657 
L 370.570724 250.4493 
L 372.803468 250.827773 
L 379.501701 251.002144 
L 380.841347 251.005563 
L 385.083561 251.019051 
L 386.199933 251.001204 
L 387.093031 250.991939 
L 588.709837 250.993079 
L 596.301167 250.996483 
L 597.194265 251.011104 
L 598.310637 251.010793 
L 600.543381 251.014125 
L 601.659753 251.004911 
L 603.669223 251.027721 
L 604.562321 250.991871 
L 605.232144 251.029635 
L 605.901967 251.005401 
L 607.688163 250.998483 
L 608.804535 251.008277 
L 611.707102 250.995176 
L 612.823474 251.018723 
L 614.163121 250.993751 
L 614.832944 251.018805 
L 616.395865 251.032759 
L 629.345782 250.99611 
L 633.364722 251.017793 
L 634.704368 251.011385 
L 636.267289 250.994707 
L 637.606936 251.02716 
L 639.169857 251.00633 
L 665.962788 250.998513 
L 666.632611 259.46967 
L 667.302434 265.618276 
L 667.972257 270.144984 
L 668.865355 274.295865 
L 669.758453 277.028341 
L 670.428276 278.415785 
L 671.098099 279.440052 
L 671.991197 280.412084 
L 673.554118 281.359181 
L 676.010137 281.953748 
L 677.573058 282.069156 
L 679.359253 282.139064 
L 680.029076 281.865082 
L 680.922174 281.148344 
L 682.038546 279.882428 
L 685.610937 275.348862 
L 686.950584 274.12646 
L 688.513505 273.309659 
L 689.853151 273.064994 
L 690.969523 273.173221 
L 692.978993 273.629131 
L 694.541914 273.985856 
L 696.104835 274.046508 
L 698.337579 273.409649 
L 699.9005 272.490864 
L 702.579793 270.465831 
L 703.91944 269.465237 
L 706.822007 267.806619 
L 708.608203 267.169498 
L 714.859887 265.638366 
L 718.878826 263.382424 
L 726.246882 258.274491 
L 738.526976 251.526361 
L 739.420073 251.035926 
L 740.536445 250.399293 
L 742.099366 249.661718 
L 742.992464 249.276058 
L 744.77866 248.602413 
L 748.35105 247.603132 
L 751.476892 246.918 
L 752.593264 246.712685 
L 759.738046 245.422294 
L 761.077693 245.275912 
L 762.640614 245.096861 
L 777.6 244.363622 
L 777.6 244.363622 
" style="fill:none;stroke:#ff0000;stroke-linecap:square;stroke-width:1.5;"/>
   </g>
   <g id="line2d_19">
    <path clip-path="url(#pac1172296c)" d="M 108 294.045925 
L 108.446549 286.875201 
L 109.116372 269.022349 
L 112.01894 180.042359 
L 112.688763 167.623535 
L 113.135312 162.035568 
L 113.581861 158.560335 
L 113.805135 157.655947 
L 114.028409 157.230274 
L 114.251684 157.348001 
L 114.474958 157.99363 
L 114.921507 160.651539 
L 115.368056 165.02805 
L 116.037879 174.406671 
L 116.930977 190.877496 
L 118.717172 230.377428 
L 119.61027 248.082496 
L 120.280093 257.329258 
L 120.949917 264.054204 
L 121.61974 268.967521 
L 122.289563 272.561821 
L 122.959386 275.193498 
L 123.852484 277.586347 
L 124.522307 278.836053 
L 124.745582 279.208898 
L 124.968856 279.308832 
L 125.192131 279.126243 
L 125.63868 277.916039 
L 126.085228 275.717293 
L 126.755052 271.043416 
L 127.648149 262.859548 
L 130.997266 229.621888 
L 131.667089 225.105178 
L 132.336912 221.813309 
L 133.006736 219.937864 
L 133.453284 219.478125 
L 133.676559 219.443615 
L 133.899833 219.580899 
L 134.346382 220.320016 
L 134.792931 221.549307 
L 135.462754 224.332665 
L 136.355852 229.352645 
L 137.695498 238.588925 
L 139.481694 250.852634 
L 140.374792 255.791513 
L 141.044615 258.641164 
L 141.714438 260.5877 
L 142.160987 261.416478 
L 142.607536 261.790284 
L 143.054085 261.801264 
L 143.500634 261.408506 
L 144.170457 260.083898 
L 144.84028 258.057821 
L 145.733378 254.497874 
L 147.296299 247.003668 
L 148.85922 239.845288 
L 149.752317 236.619949 
L 150.422141 234.876257 
L 150.86869 234.05101 
L 151.315238 233.498084 
L 151.761787 233.214369 
L 152.208336 233.243869 
L 152.654885 233.530746 
L 153.324708 234.426106 
L 153.994532 235.817791 
L 154.664355 237.577502 
L 156.004001 241.850349 
L 157.790197 247.610196 
L 158.906569 250.407845 
L 159.576392 251.612225 
L 160.246215 252.40264 
L 160.692764 252.722717 
L 161.139313 252.831787 
L 161.585862 252.741153 
L 162.47896 252.039633 
L 163.148783 251.102893 
L 164.041881 249.456872 
L 167.837546 241.433981 
L 168.730644 240.256199 
L 169.623741 239.609875 
L 170.07029 239.459387 
L 170.740113 239.506282 
L 171.186662 239.709297 
L 171.856485 240.197977 
L 172.749583 241.137456 
L 174.312504 243.416251 
L 175.875425 245.79421 
L 176.991797 247.223237 
L 177.884895 248.020537 
L 179.001267 248.55426 
L 180.117639 248.49096 
L 180.787462 248.234196 
L 181.68056 247.622402 
L 182.350383 247.043749 
L 185.922774 243.462278 
L 186.815872 242.891499 
L 187.485695 242.576737 
L 188.155519 242.415811 
L 189.048616 242.393569 
L 190.388263 242.778092 
L 191.727909 243.564438 
L 194.183928 245.316364 
L 195.746849 246.185228 
L 196.863221 246.520514 
L 198.202868 246.606462 
L 199.095965 246.467429 
L 201.105435 245.707192 
L 202.221807 245.12176 
L 203.338179 244.622192 
L 204.454552 244.146968 
L 206.91057 243.728048 
L 207.580393 243.732524 
L 208.473491 243.874231 
L 209.589863 244.136531 
L 210.706235 244.48509 
L 212.269156 244.989834 
L 213.385529 245.347913 
L 216.064822 245.703471 
L 217.181194 245.669531 
L 218.297566 245.508634 
L 221.200133 244.871706 
L 222.093231 244.647948 
L 223.209603 244.498989 
L 223.879426 244.381937 
L 225.665622 244.331511 
L 229.238013 244.714134 
L 230.13111 244.876069 
L 231.917306 245.12832 
L 233.703501 245.268941 
L 234.819873 245.249896 
L 237.945715 245.058557 
L 241.964655 244.666333 
L 243.081027 244.610415 
L 246.206869 244.695516 
L 248.439613 244.871345 
L 254.468023 245.039691 
L 256.030944 244.992586 
L 256.700767 244.937327 
L 265.631744 244.853231 
L 266.524842 244.872025 
L 276.572191 245.074415 
L 277.242014 245.385221 
L 277.688563 245.712572 
L 278.581661 246.82975 
L 279.251484 248.039674 
L 279.921307 249.55132 
L 280.814405 251.996333 
L 282.154051 256.351544 
L 284.61007 264.696579 
L 285.949717 268.355194 
L 287.066089 270.571025 
L 287.959186 271.698564 
L 288.62901 272.223528 
L 289.298833 272.44849 
L 289.745382 272.490025 
L 290.861754 272.176455 
L 292.424675 271.238025 
L 293.541047 270.518991 
L 294.880694 270.029066 
L 295.550517 269.991785 
L 296.22034 270.137465 
L 297.113438 270.578494 
L 297.783261 271.137684 
L 298.899633 272.420987 
L 300.685829 275.127161 
L 303.141847 279.090641 
L 304.034945 280.192846 
L 305.374592 281.116244 
L 306.044415 281.409567 
L 307.607336 281.839665 
L 309.84008 282.093365 
L 311.403001 282.135661 
L 312.296099 282.183063 
L 313.635745 282.212906 
L 316.761587 282.198073 
L 317.877959 282.211631 
L 335.963188 282.226214 
L 336.856285 282.207838 
L 339.758853 282.203553 
L 340.651951 282.235747 
L 341.321774 282.222683 
L 346.010537 282.218382 
L 347.796732 282.202437 
L 348.466556 282.230545 
L 351.369123 282.197717 
L 352.70877 282.207886 
L 354.271691 282.23474 
L 360.523374 282.228671 
L 361.416472 282.221722 
L 374.143114 282.223462 
L 375.036212 282.200394 
L 377.492231 282.232227 
L 378.385328 282.200018 
L 379.501701 282.215741 
L 387.316305 282.228917 
L 388.432678 282.196406 
L 390.218873 282.226959 
L 393.344715 282.203626 
L 402.945515 282.225889 
L 407.857553 282.209181 
L 446.037479 282.205485 
L 456.308103 282.224059 
L 458.094298 282.225476 
L 459.657219 282.214841 
L 464.122708 282.210727 
L 465.462354 282.229319 
L 469.704568 282.23751 
L 470.597666 282.200002 
L 471.267489 282.208658 
L 484.887229 282.207624 
L 487.119973 282.207443 
L 490.46909 282.234939 
L 492.701834 282.208264 
L 503.195732 282.20307 
L 521.28096 282.226204 
L 522.174058 282.200656 
L 522.843881 282.227328 
L 524.183528 282.200468 
L 525.076626 282.218094 
L 526.192998 282.20104 
L 527.30937 282.236423 
L 527.979193 282.235398 
L 531.105035 282.204012 
L 531.998133 282.216018 
L 533.784328 282.212401 
L 548.52044 282.219547 
L 550.52991 282.223271 
L 551.423008 282.202029 
L 563.703101 282.222085 
L 565.266022 282.209469 
L 648.770657 282.217986 
L 649.663755 282.209473 
L 650.556852 282.233577 
L 651.226676 282.211553 
L 652.789597 282.22101 
L 655.915438 282.217628 
L 657.031811 282.213831 
L 657.924908 282.212809 
L 659.487829 282.206639 
L 661.720574 282.229802 
L 662.390397 282.228729 
L 663.953318 282.199204 
L 665.292964 282.21418 
L 679.805802 282.180509 
L 680.252351 282.026898 
L 680.922174 281.5274 
L 681.591997 280.844302 
L 685.834211 275.437194 
L 687.397132 274.101435 
L 688.29023 273.648659 
L 689.183328 273.34471 
L 690.522974 273.294038 
L 693.202267 273.8321 
L 694.095365 274.056492 
L 695.658286 274.197531 
L 697.667756 273.768726 
L 698.560854 273.376081 
L 700.123775 272.443866 
L 703.026342 270.190407 
L 706.822007 267.853641 
L 707.938379 267.448927 
L 710.171124 266.862764 
L 713.52024 266.153569 
L 715.976259 265.211198 
L 720.665022 262.194018 
L 722.674491 260.682735 
L 723.567589 260.086902 
L 724.460687 259.47139 
L 729.595999 256.506504 
L 731.828743 255.376903 
L 740.982994 250.284826 
L 745.895032 248.344503 
L 747.457953 247.9337 
L 759.291497 245.677578 
L 761.747516 245.366738 
L 762.640614 245.28578 
L 772.241414 244.825869 
L 775.143981 244.707356 
L 776.706902 244.626211 
L 777.6 244.609121 
L 777.6 244.609121 
" style="fill:none;stroke:#0000ff;stroke-linecap:square;stroke-width:1.5;"/>
   </g>
   <g id="line2d_20">
    <path clip-path="url(#pac1172296c)" d="M 108 294.028899 
L 108.446549 286.900259 
L 109.116372 269.003691 
L 112.01894 180.019148 
L 112.688763 167.626802 
L 113.135312 162.029769 
L 113.581861 158.566627 
L 113.805135 157.64762 
L 114.028409 157.255144 
L 114.251684 157.355543 
L 114.474958 157.977909 
L 114.921507 160.638252 
L 115.368056 165.008783 
L 116.037879 174.43068 
L 116.930977 190.89381 
L 118.493898 225.33105 
L 119.386996 244.300652 
L 120.056819 254.552832 
L 120.726642 262.051666 
L 121.396465 267.513298 
L 122.066289 271.485846 
L 122.736112 274.413672 
L 123.405935 276.538977 
L 124.075759 278.067153 
L 124.745582 279.190987 
L 124.968856 279.305189 
L 125.192131 279.120388 
L 125.415405 278.670192 
L 125.861954 276.965238 
L 126.531777 272.774672 
L 127.201601 267.201005 
L 128.541247 253.569777 
L 130.327442 235.27047 
L 131.22054 228.004781 
L 131.890363 223.891024 
L 132.560187 221.052263 
L 133.006736 219.963463 
L 133.453284 219.490311 
L 133.676559 219.465152 
L 134.123108 219.883884 
L 134.569657 220.885062 
L 135.23948 223.318297 
L 136.132578 227.999608 
L 137.472224 237.008103 
L 139.481694 250.91028 
L 140.374792 255.846401 
L 141.044615 258.66557 
L 141.714438 260.651422 
L 142.160987 261.453919 
L 142.607536 261.841947 
L 143.054085 261.822418 
L 143.277359 261.688305 
L 143.723908 261.067622 
L 144.170457 260.114027 
L 144.84028 258.097518 
L 145.733378 254.549518 
L 147.296299 247.057451 
L 148.85922 239.85404 
L 149.752317 236.658502 
L 150.422141 234.887195 
L 151.091964 233.7673 
L 151.538513 233.364256 
L 151.985062 233.211275 
L 152.431611 233.378802 
L 152.878159 233.79055 
L 153.324708 234.425874 
L 154.217806 236.39268 
L 155.334178 239.655228 
L 158.013471 248.261165 
L 158.906569 250.417324 
L 159.799667 251.976507 
L 160.46949 252.628504 
L 160.916039 252.803824 
L 161.362588 252.830479 
L 161.809136 252.653927 
L 162.47896 252.0738 
L 163.148783 251.138223 
L 164.488429 248.528115 
L 167.390997 242.237088 
L 168.284095 240.828281 
L 169.177192 239.907719 
L 169.847016 239.544876 
L 170.516839 239.507435 
L 171.186662 239.707778 
L 172.303034 240.667995 
L 172.972858 241.472034 
L 175.205602 244.854677 
L 176.545248 246.752464 
L 177.661621 247.891816 
L 178.777993 248.505829 
L 179.224542 248.591924 
L 179.67109 248.622693 
L 180.340914 248.482281 
L 181.457286 247.833172 
L 182.350383 247.058927 
L 183.913304 245.454854 
L 185.476225 243.858369 
L 186.815872 242.909434 
L 187.485695 242.581845 
L 188.378793 242.393916 
L 189.271891 242.439893 
L 190.611537 242.904846 
L 195.746849 246.222209 
L 197.30977 246.628357 
L 198.872691 246.513659 
L 199.542514 246.357363 
L 202.221807 245.191594 
L 203.114905 244.752324 
L 204.677826 244.102527 
L 206.687296 243.757988 
L 207.580393 243.788559 
L 208.473491 243.882338 
L 210.706235 244.519518 
L 214.501901 245.609832 
L 217.851017 245.616213 
L 218.967389 245.385983 
L 220.53031 245.050763 
L 221.423408 244.849077 
L 223.656152 244.44069 
L 227.451817 244.479059 
L 229.461287 244.782631 
L 234.819873 245.303718 
L 243.974125 244.649094 
L 245.537046 244.719611 
L 248.886162 244.928949 
L 249.77926 245.011363 
L 250.672357 245.042327 
L 251.565455 245.081197 
L 253.128376 245.099142 
L 255.807669 245.02154 
L 256.477492 244.99047 
L 260.273158 244.797507 
L 261.166255 244.800661 
L 263.175725 244.796477 
L 264.292097 244.853149 
L 264.961921 244.850431 
L 266.078293 244.893446 
L 268.98086 244.999465 
L 270.320507 244.983219 
L 270.99033 245.009863 
L 273.669623 244.96852 
L 274.339446 236.543474 
L 275.232544 228.460862 
L 276.125642 222.622169 
L 277.01874 218.301582 
L 277.911837 215.128745 
L 278.581661 213.423065 
L 279.251484 212.258564 
L 279.921307 211.547059 
L 280.59113 211.153648 
L 281.484228 211.158467 
L 281.930777 211.243051 
L 283.716972 212.04987 
L 285.056619 212.375371 
L 285.949717 212.22128 
L 286.61954 211.794451 
L 287.066089 211.426629 
L 287.959186 210.284342 
L 288.62901 209.165083 
L 289.522107 207.378538 
L 291.308303 202.995728 
L 294.21087 195.487062 
L 295.773791 192.16131 
L 297.336712 189.720229 
L 298.676359 188.236006 
L 300.909103 186.681336 
L 303.141847 185.355875 
L 305.151317 183.643275 
L 306.490964 182.120238 
L 309.170257 178.178194 
L 312.519373 172.721904 
L 314.752117 169.334998 
L 321.45035 160.888139 
L 322.566722 159.590718 
L 323.683094 158.205119 
L 325.022741 156.550187 
L 328.818406 151.480345 
L 331.944248 146.809032 
L 336.409737 139.146658 
L 339.982127 132.173099 
L 343.331244 125.043266 
L 356.504435 94.292503 
L 360.3001 86.22101 
L 364.095765 79.085155 
L 367.444882 73.557912 
L 370.347449 69.399565 
L 375.036212 64.02413 
L 375.92931 63.211672 
L 377.93878 61.688851 
L 380.171524 60.469669 
L 381.51117 59.947876 
L 383.52064 59.344035 
L 386.423208 58.799185 
L 387.762854 58.660506 
L 389.325775 58.536558 
L 395.800734 58.225699 
L 396.247282 58.235322 
L 397.586929 58.210334 
L 399.373124 58.17132 
L 401.15932 58.142693 
L 401.829143 58.155869 
L 402.722241 58.134585 
L 403.838613 58.107439 
L 404.285162 58.125905 
L 406.071357 58.106334 
L 408.304101 58.109972 
L 409.867022 58.090688 
L 410.76012 58.105234 
L 412.546315 58.075483 
L 413.439413 58.106078 
L 414.332511 58.073328 
L 415.225609 58.084518 
L 423.040213 58.084083 
L 424.37986 58.104509 
L 425.496232 58.097672 
L 431.524642 58.106101 
L 432.194465 58.09443 
L 433.534111 58.080144 
L 434.203935 58.0807 
L 435.320307 58.103317 
L 437.9996 58.061305 
L 438.669423 58.089918 
L 448.270223 58.074296 
L 449.163321 58.064947 
L 459.880493 58.076344 
L 461.443414 58.093812 
L 462.336512 58.098977 
L 465.462354 58.086552 
L 467.471824 58.088759 
L 468.364922 58.098024 
L 472.160587 58.085051 
L 507.437946 58.093406 
L 509.447416 58.088342 
L 510.340514 58.085568 
L 511.903434 58.09885 
L 514.136179 58.084016 
L 516.145649 58.099831 
L 516.815472 58.100127 
L 520.611137 58.089576 
L 521.950784 58.084877 
L 523.067156 58.067349 
L 523.960253 58.093239 
L 524.853351 58.072528 
L 528.425742 58.085758 
L 533.337779 58.104457 
L 541.375659 58.090538 
L 544.278226 58.096093 
L 547.180794 58.061003 
L 548.52044 58.097388 
L 549.636812 58.078557 
L 553.209203 58.07984 
L 554.325575 58.093933 
L 561.470357 58.066044 
L 562.586729 58.075801 
L 564.14965 58.053713 
L 564.819473 58.094543 
L 566.15912 58.089418 
L 579.77886 58.063284 
L 580.671957 58.076276 
L 581.565055 58.068214 
L 582.681427 58.082259 
L 584.244348 58.068582 
L 586.923641 58.101557 
L 590.049483 58.089262 
L 592.505502 58.105462 
L 593.175325 58.094956 
L 612.6002 58.088268 
L 613.716572 58.063494 
L 625.550117 58.07525 
L 627.336312 58.085385 
L 628.452684 58.092476 
L 629.569056 58.087675 
L 630.908703 58.085341 
L 631.801801 58.088285 
L 634.034545 58.088482 
L 639.616405 58.077408 
L 640.509503 58.088964 
L 642.742247 58.077397 
L 643.635345 58.106308 
L 665.962788 58.071669 
L 666.632611 66.462553 
L 667.525709 74.527696 
L 668.418806 80.452197 
L 669.535178 86.190928 
L 671.098099 92.543028 
L 672.66102 97.819182 
L 674.000667 101.748405 
L 675.563588 105.643861 
L 677.349783 109.255435 
L 679.359253 112.390531 
L 680.922174 114.343219 
L 682.261821 115.773913 
L 685.610937 118.941697 
L 688.066956 121.986473 
L 689.853151 124.886421 
L 690.969523 126.881277 
L 695.211737 134.964342 
L 698.114305 139.768374 
L 699.677226 142.043153 
L 702.356519 145.726259 
L 703.696165 147.662951 
L 705.035812 149.714665 
L 707.715105 154.446449 
L 710.617673 160.378573 
L 717.092631 174.802479 
L 720.218473 181.846109 
L 722.004668 185.907969 
L 730.489096 206.101799 
L 732.498566 210.59362 
L 734.73131 215.18092 
L 736.964055 219.241274 
L 738.303701 221.45954 
L 739.643348 223.508996 
L 741.429543 225.962691 
L 742.76919 227.70351 
L 744.108836 229.335963 
L 749.244148 234.513276 
L 751.253618 236.088832 
L 755.049283 238.379872 
L 755.942381 238.790857 
L 757.505302 239.44303 
L 763.087162 241.229087 
L 770.678493 242.808667 
L 774.920707 243.302672 
L 777.6 243.490897 
L 777.6 243.490897 
" style="fill:none;stroke:#008000;stroke-linecap:square;stroke-width:1.5;"/>
   </g>
   <g id="line2d_21">
    <path clip-path="url(#pac1172296c)" d="M 108 294.028227 
L 108.446549 286.87555 
L 109.116372 269.008512 
L 112.01894 180.042582 
L 112.688763 167.66096 
L 113.135312 161.995213 
L 113.581861 158.572129 
L 113.805135 157.624175 
L 114.028409 157.233222 
L 114.251684 157.362354 
L 114.474958 157.983231 
L 114.921507 160.609577 
L 115.368056 164.99312 
L 116.037879 174.356082 
L 116.930977 190.791666 
L 118.493898 225.074254 
L 119.61027 247.8725 
L 120.280093 257.183018 
L 120.949917 263.953058 
L 121.61974 268.920952 
L 122.289563 272.520931 
L 123.182661 275.871718 
L 124.075759 278.027962 
L 124.745582 279.156757 
L 124.968856 279.302533 
L 125.192131 279.098817 
L 125.63868 277.823291 
L 126.085228 275.634006 
L 126.755052 270.934849 
L 127.648149 262.746152 
L 131.22054 227.891871 
L 131.890363 223.789373 
L 132.560187 220.961429 
L 133.006736 219.884493 
L 133.23001 219.534739 
L 133.676559 219.36123 
L 133.899833 219.500715 
L 134.346382 220.223236 
L 134.792931 221.493534 
L 135.462754 224.261667 
L 136.355852 229.256508 
L 138.142047 241.689987 
L 139.481694 250.733579 
L 140.374792 255.669239 
L 141.044615 258.509101 
L 141.714438 260.482081 
L 142.160987 261.273445 
L 142.607536 261.663402 
L 143.054085 261.651167 
L 143.500634 261.271447 
L 144.170457 259.943657 
L 144.617006 258.691109 
L 145.286829 256.272404 
L 146.403201 251.272304 
L 148.85922 239.739566 
L 149.752317 236.519682 
L 150.422141 234.757024 
L 151.091964 233.620597 
L 151.538513 233.229058 
L 151.761787 233.104657 
L 152.208336 233.12389 
L 152.878159 233.648055 
L 153.547983 234.725367 
L 154.44108 236.860351 
L 155.557452 240.242049 
L 157.566922 246.823731 
L 158.683294 249.798579 
L 159.576392 251.491701 
L 160.022941 252.084719 
L 160.692764 252.579592 
L 161.139313 252.703245 
L 161.585862 252.618103 
L 162.255685 252.133336 
L 162.925509 251.344073 
L 163.818606 249.789529 
L 164.934978 247.423139 
L 166.721174 243.402645 
L 168.06082 241.016288 
L 168.730644 240.203354 
L 169.400467 239.619673 
L 170.293565 239.34929 
L 170.963388 239.506821 
L 171.409937 239.735962 
L 172.526309 240.803297 
L 173.865955 242.637042 
L 175.652151 245.427056 
L 176.768523 246.878907 
L 177.884895 247.922501 
L 178.331444 248.222077 
L 179.224542 248.496643 
L 180.340914 248.366164 
L 181.68056 247.565447 
L 186.146049 243.225766 
L 187.262421 242.583719 
L 187.932244 242.368956 
L 188.825342 242.264675 
L 189.718439 242.45058 
L 190.834812 242.931049 
L 196.193398 246.277563 
L 197.30977 246.526692 
L 199.765789 246.185007 
L 201.32871 245.515412 
L 202.891631 244.726508 
L 204.9011 243.915956 
L 206.464021 243.658397 
L 207.803668 243.651749 
L 209.143314 243.914741 
L 213.832077 245.374096 
L 214.725175 245.495608 
L 215.618273 245.600145 
L 217.851017 245.503781 
L 220.083761 245.0348 
L 223.656152 244.33074 
L 226.781994 244.305789 
L 227.451817 244.407702 
L 228.344915 244.508625 
L 229.238013 244.642093 
L 231.247482 244.97502 
L 234.596599 245.180996 
L 237.945715 244.967796 
L 241.964655 244.56482 
L 242.634478 244.576237 
L 243.304301 244.558966 
L 246.653418 244.653473 
L 247.76979 244.769768 
L 250.895632 244.948957 
L 253.351651 244.977499 
L 256.477492 244.87168 
L 258.040413 244.778831 
L 260.049883 244.695378 
L 262.952451 244.712647 
L 271.883428 244.907425 
L 274.339446 244.827902 
L 275.455819 244.848745 
L 276.572191 244.985114 
L 277.465288 245.444605 
L 278.358386 246.400756 
L 279.251484 247.933025 
L 280.367856 250.616215 
L 281.484228 254.022817 
L 285.279893 266.546717 
L 286.396265 269.232212 
L 287.066089 270.452705 
L 287.959186 271.632791 
L 288.62901 272.142494 
L 289.522107 272.397955 
L 290.415205 272.293955 
L 291.531577 271.754573 
L 293.541047 270.444441 
L 294.657419 269.999147 
L 295.550517 269.939327 
L 296.443615 270.160181 
L 297.113438 270.523877 
L 298.006536 271.303623 
L 299.346182 272.996012 
L 301.355652 276.189708 
L 303.365122 279.413702 
L 304.704768 280.721224 
L 306.044415 281.403576 
L 306.714238 281.64032 
L 310.956452 282.122772 
L 312.296099 282.179797 
L 313.85902 282.174638 
L 315.421941 282.214841 
L 316.761587 282.199592 
L 319.664155 282.217242 
L 321.45035 282.233145 
L 322.789997 282.227158 
L 325.915839 282.232758 
L 327.032211 282.210106 
L 329.711504 282.234643 
L 330.827876 282.21916 
L 334.400267 282.210363 
L 337.302834 282.2118 
L 338.865755 282.219159 
L 340.875225 282.221493 
L 343.554518 282.224601 
L 344.447616 282.225628 
L 349.582928 282.235243 
L 414.555785 282.222983 
L 415.448883 282.206666 
L 419.467823 282.207887 
L 421.254018 282.23185 
L 424.156586 282.199208 
L 424.826409 282.231865 
L 425.942781 282.197045 
L 426.612604 282.235787 
L 428.3988 282.204871 
L 429.291897 282.229085 
L 430.408269 282.195692 
L 434.873758 282.201908 
L 444.028009 282.204727 
L 445.144381 282.215235 
L 446.260754 282.229236 
L 452.289163 282.199279 
L 452.958986 282.231544 
L 453.62881 282.205937 
L 475.732978 282.230656 
L 476.402801 282.232846 
L 478.188996 282.210275 
L 506.544848 282.214442 
L 507.66122 282.200448 
L 509.67069 282.224571 
L 511.010337 282.203669 
L 514.582728 282.215316 
L 516.145649 282.231957 
L 522.843881 282.200279 
L 523.513705 282.206715 
L 529.765388 282.228015 
L 531.105035 282.213231 
L 532.221407 282.231662 
L 534.007603 282.200939 
L 535.793798 282.216167 
L 538.473091 282.221865 
L 540.482561 282.235082 
L 541.375659 282.213743 
L 545.617873 282.219665 
L 546.734245 282.211334 
L 548.966989 282.193856 
L 550.083361 282.231368 
L 555.218673 282.205117 
L 555.888496 282.194927 
L 559.684161 282.217325 
L 562.363454 282.224356 
L 564.372924 282.211526 
L 568.615138 282.235571 
L 569.284962 282.2101 
L 571.517706 282.207096 
L 580.895232 282.232114 
L 582.011604 282.196871 
L 593.175325 282.203545 
L 594.068423 282.216294 
L 596.077893 282.208877 
L 596.97099 282.206105 
L 600.320107 282.20745 
L 604.339046 282.209722 
L 607.018339 282.234948 
L 608.357986 282.215898 
L 612.376926 282.223014 
L 613.939847 282.19486 
L 615.056219 282.237291 
L 616.395865 282.196019 
L 620.638079 282.233907 
L 621.307903 282.233561 
L 663.953318 282.203239 
L 667.302434 282.204237 
L 667.972257 282.233284 
L 668.642081 282.228832 
L 675.786862 282.201669 
L 678.466155 282.230213 
L 679.805802 282.182031 
L 680.475625 281.886229 
L 681.591997 280.836444 
L 683.824742 277.935702 
L 685.164388 276.2197 
L 686.504035 274.779499 
L 687.620407 273.940996 
L 688.736779 273.453231 
L 690.522974 273.286513 
L 691.862621 273.498736 
L 692.978993 273.784909 
L 695.658286 274.186919 
L 696.551384 274.061975 
L 697.667756 273.780838 
L 700.123775 272.43926 
L 701.90997 271.058637 
L 704.589263 269.051106 
L 705.482361 268.516703 
L 706.598733 267.946505 
L 708.608203 267.237723 
L 709.278026 267.055223 
L 710.171124 266.859691 
L 713.966789 265.990738 
L 716.646082 264.829867 
L 717.762454 264.198308 
L 718.655552 263.595781 
L 721.111571 261.8361 
L 721.781394 261.310839 
L 722.451217 260.821754 
L 726.916706 257.935224 
L 728.702901 256.98484 
L 730.712371 255.911507 
L 734.284762 254.041189 
L 735.177859 253.510179 
L 739.420073 251.090396 
L 740.536445 250.484904 
L 741.652818 249.921363 
L 743.662287 249.079785 
L 744.555385 248.719483 
L 746.341581 248.16047 
L 755.049283 246.304619 
L 756.165655 246.117466 
L 757.058753 245.927462 
L 759.514772 245.545722 
L 762.863888 245.170449 
L 775.813805 244.548659 
L 777.153451 244.492285 
L 777.6 244.48484 
L 777.6 244.48484 
" style="fill:none;stroke:#bfbf00;stroke-linecap:square;stroke-width:1.5;"/>
   </g>
   <g id="patch_3">
    <path d="M 108 306 
L 108 43.2 
" style="fill:none;stroke:#000000;stroke-linecap:square;stroke-linejoin:miter;stroke-width:0.8;"/>
   </g>
   <g id="patch_4">
    <path d="M 777.6 306 
L 777.6 43.2 
" style="fill:none;stroke:#000000;stroke-linecap:square;stroke-linejoin:miter;stroke-width:0.8;"/>
   </g>
   <g id="patch_5">
    <path d="M 108 306 
L 777.6 306 
" style="fill:none;stroke:#000000;stroke-linecap:square;stroke-linejoin:miter;stroke-width:0.8;"/>
   </g>
   <g id="patch_6">
    <path d="M 108 43.2 
L 777.6 43.2 
" style="fill:none;stroke:#000000;stroke-linecap:square;stroke-linejoin:miter;stroke-width:0.8;"/>
   </g>
   <g id="legend_1">
    <g id="line2d_22">
     <path d="M 117 56.298437 
L 137 56.298437 
" style="fill:none;stroke:#bfbf00;stroke-linecap:square;stroke-width:1.5;"/>
    </g>
    <g id="line2d_23"/>
    <g id="text_16">
     <!-- Cognitive Cortex -->
     <defs>
      <path d="M 64.40625 67.28125 
L 64.40625 56.890625 
Q 59.421875 61.53125 53.78125 63.8125 
Q 48.140625 66.109375 41.796875 66.109375 
Q 29.296875 66.109375 22.65625 58.46875 
Q 16.015625 50.828125 16.015625 36.375 
Q 16.015625 21.96875 22.65625 14.328125 
Q 29.296875 6.6875 41.796875 6.6875 
Q 48.140625 6.6875 53.78125 8.984375 
Q 59.421875 11.28125 64.40625 15.921875 
L 64.40625 5.609375 
Q 59.234375 2.09375 53.4375 0.328125 
Q 47.65625 -1.421875 41.21875 -1.421875 
Q 24.65625 -1.421875 15.125 8.703125 
Q 5.609375 18.84375 5.609375 36.375 
Q 5.609375 53.953125 15.125 64.078125 
Q 24.65625 74.21875 41.21875 74.21875 
Q 47.75 74.21875 53.53125 72.484375 
Q 59.328125 70.75 64.40625 67.28125 
z
" id="DejaVuSans-43"/>
      <path d="M 45.40625 27.984375 
Q 45.40625 37.75 41.375 43.109375 
Q 37.359375 48.484375 30.078125 48.484375 
Q 22.859375 48.484375 18.828125 43.109375 
Q 14.796875 37.75 14.796875 27.984375 
Q 14.796875 18.265625 18.828125 12.890625 
Q 22.859375 7.515625 30.078125 7.515625 
Q 37.359375 7.515625 41.375 12.890625 
Q 45.40625 18.265625 45.40625 27.984375 
z
M 54.390625 6.78125 
Q 54.390625 -7.171875 48.1875 -13.984375 
Q 42 -20.796875 29.203125 -20.796875 
Q 24.46875 -20.796875 20.265625 -20.09375 
Q 16.0625 -19.390625 12.109375 -17.921875 
L 12.109375 -9.1875 
Q 16.0625 -11.328125 19.921875 -12.34375 
Q 23.78125 -13.375 27.78125 -13.375 
Q 36.625 -13.375 41.015625 -8.765625 
Q 45.40625 -4.15625 45.40625 5.171875 
L 45.40625 9.625 
Q 42.625 4.78125 38.28125 2.390625 
Q 33.9375 0 27.875 0 
Q 17.828125 0 11.671875 7.65625 
Q 5.515625 15.328125 5.515625 27.984375 
Q 5.515625 40.671875 11.671875 48.328125 
Q 17.828125 56 27.875 56 
Q 33.9375 56 38.28125 53.609375 
Q 42.625 51.21875 45.40625 46.390625 
L 45.40625 54.6875 
L 54.390625 54.6875 
z
" id="DejaVuSans-67"/>
      <path d="M 41.109375 46.296875 
Q 39.59375 47.171875 37.8125 47.578125 
Q 36.03125 48 33.890625 48 
Q 26.265625 48 22.1875 43.046875 
Q 18.109375 38.09375 18.109375 28.8125 
L 18.109375 0 
L 9.078125 0 
L 9.078125 54.6875 
L 18.109375 54.6875 
L 18.109375 46.1875 
Q 20.953125 51.171875 25.484375 53.578125 
Q 30.03125 56 36.53125 56 
Q 37.453125 56 38.578125 55.875 
Q 39.703125 55.765625 41.0625 55.515625 
z
" id="DejaVuSans-72"/>
      <path d="M 54.890625 54.6875 
L 35.109375 28.078125 
L 55.90625 0 
L 45.3125 0 
L 29.390625 21.484375 
L 13.484375 0 
L 2.875 0 
L 24.125 28.609375 
L 4.6875 54.6875 
L 15.28125 54.6875 
L 29.78125 35.203125 
L 44.28125 54.6875 
z
" id="DejaVuSans-78"/>
     </defs>
     <g transform="translate(145 59.798437)scale(0.1 -0.1)">
      <use xlink:href="#DejaVuSans-43"/>
      <use x="69.824219" xlink:href="#DejaVuSans-6f"/>
      <use x="131.005859" xlink:href="#DejaVuSans-67"/>
      <use x="194.482422" xlink:href="#DejaVuSans-6e"/>
      <use x="257.861328" xlink:href="#DejaVuSans-69"/>
      <use x="285.644531" xlink:href="#DejaVuSans-74"/>
      <use x="324.853516" xlink:href="#DejaVuSans-69"/>
      <use x="352.636719" xlink:href="#DejaVuSans-76"/>
      <use x="411.816406" xlink:href="#DejaVuSans-65"/>
      <use x="473.339844" xlink:href="#DejaVuSans-20"/>
      <use x="505.126953" xlink:href="#DejaVuSans-43"/>
      <use x="574.951172" xlink:href="#DejaVuSans-6f"/>
      <use x="636.132812" xlink:href="#DejaVuSans-72"/>
      <use x="677.246094" xlink:href="#DejaVuSans-74"/>
      <use x="716.455078" xlink:href="#DejaVuSans-65"/>
      <use x="777.962891" xlink:href="#DejaVuSans-78"/>
     </g>
    </g>
    <g id="line2d_24">
     <path d="M 117 70.976562 
L 137 70.976562 
" style="fill:none;stroke:#bfbf00;stroke-linecap:square;stroke-width:1.5;"/>
    </g>
    <g id="line2d_25"/>
    <g id="text_17">
     <!-- Motor Cortex -->
     <defs>
      <path d="M 9.8125 72.90625 
L 24.515625 72.90625 
L 43.109375 23.296875 
L 61.8125 72.90625 
L 76.515625 72.90625 
L 76.515625 0 
L 66.890625 0 
L 66.890625 64.015625 
L 48.09375 14.015625 
L 38.1875 14.015625 
L 19.390625 64.015625 
L 19.390625 0 
L 9.8125 0 
z
" id="DejaVuSans-4d"/>
     </defs>
     <g transform="translate(145 74.476562)scale(0.1 -0.1)">
      <use xlink:href="#DejaVuSans-4d"/>
      <use x="86.279297" xlink:href="#DejaVuSans-6f"/>
      <use x="147.460938" xlink:href="#DejaVuSans-74"/>
      <use x="186.669922" xlink:href="#DejaVuSans-6f"/>
      <use x="247.851562" xlink:href="#DejaVuSans-72"/>
      <use x="288.964844" xlink:href="#DejaVuSans-20"/>
      <use x="320.751953" xlink:href="#DejaVuSans-43"/>
      <use x="390.576172" xlink:href="#DejaVuSans-6f"/>
      <use x="451.757812" xlink:href="#DejaVuSans-72"/>
      <use x="492.871094" xlink:href="#DejaVuSans-74"/>
      <use x="532.080078" xlink:href="#DejaVuSans-65"/>
      <use x="593.587891" xlink:href="#DejaVuSans-78"/>
     </g>
    </g>
   </g>
  </g>
 </g>
 <defs>
  <clipPath id="pac1172296c">
   <rect height="262.8" width="669.6" x="108" y="43.2"/>
  </clipPath>
 </defs>
</svg>
